<svg width="26" height="21" viewBox="0 0 26 21" fill="none" xmlns="http://www.w3.org/2000/svg">
<path d="M14.3933 14.1518C12.6886 13.9052 9.59341 13.8597 7.11113 14.8772C6.69518 15.0477 6.28184 15.281 5.87993 15.5587C6.28182 15.6817 6.6745 15.7709 7.04866 15.8224C9.55306 16.1672 13.1156 14.912 14.3933 14.1518Z" fill="url(#paint0_linear_78_28)"/>
<path d="M8.19682 10.3894C9.74588 12.3873 12.9484 13.8017 14.3933 14.1518C13.3828 12.7786 10.2356 10.2795 7.61089 9.47025C7.78932 9.80742 7.98516 10.1165 8.19682 10.3894Z" fill="#4E4E4E"/>
<path d="M14.3961 13.6371C14.4108 11.7897 14.4355 8.66131 13.2173 6.47483C13.1741 6.39726 13.1282 6.32039 13.0799 6.24424C12.5621 8.70795 13.284 11.8464 14.3933 14.1518C14.3933 13.9947 14.3947 13.8221 14.3961 13.6371Z" fill="#4E4E4E"/>
<path d="M14.3933 14.1518C15.7319 13.2122 18.3258 10.5412 19.0182 7.96574C19.1174 7.59703 19.1802 7.20812 19.2132 6.80745C18.7122 7.06158 18.2508 7.35061 17.8432 7.67204C15.7445 9.32731 14.572 12.6655 14.3933 14.1518Z" fill="url(#paint1_linear_78_28)"/>
<path d="M6.64014 2.0143C6.08924 4.35938 6.53114 7.4299 7.61089 9.47025C10.2356 10.2795 13.3828 12.7786 14.3933 14.1518C13.284 11.8464 12.5621 8.70795 13.0799 6.24424C11.677 4.03332 8.19405 2.43096 6.64014 2.0143Z" fill="url(#paint2_linear_78_28)"/>
<path d="M6.64014 2.0143C6.08924 4.35938 6.53114 7.4299 7.61089 9.47025C10.2356 10.2795 13.3828 12.7786 14.3933 14.1518C13.284 11.8464 12.5621 8.70795 13.0799 6.24424C11.677 4.03332 8.19405 2.43096 6.64014 2.0143Z" fill="black" fill-opacity="0.1"/>
<path d="M7.11113 14.8772C9.59341 13.8597 12.6886 13.9052 14.3933 14.1518C12.9484 13.8017 9.74588 12.3873 8.19682 10.3894C7.98516 10.1165 7.78932 9.80742 7.61089 9.47025C7.58396 9.46195 7.55708 9.45382 7.53026 9.44588C4.97315 8.68834 1.45042 10.3711 8.2925e-09 11.1871C1.22694 13.2168 3.69001 14.8887 5.87993 15.5587C6.28184 15.281 6.69518 15.0477 7.11113 14.8772Z" fill="#B8B8B8"/>
<path d="M7.11113 14.8772C9.59341 13.8597 12.6886 13.9052 14.3933 14.1518C12.9484 13.8017 9.74588 12.3873 8.19682 10.3894C7.98516 10.1165 7.78932 9.80742 7.61089 9.47025C7.58396 9.46195 7.55708 9.45382 7.53026 9.44588C4.97315 8.68834 1.45042 10.3711 8.2925e-09 11.1871C1.22694 13.2168 3.69001 14.8887 5.87993 15.5587C6.28184 15.281 6.69518 15.0477 7.11113 14.8772Z" fill="url(#paint3_linear_78_28)"/>
<path d="M7.11113 14.8772C9.59341 13.8597 12.6886 13.9052 14.3933 14.1518C12.9484 13.8017 9.74588 12.3873 8.19682 10.3894C7.98516 10.1165 7.78932 9.80742 7.61089 9.47025C7.58396 9.46195 7.55708 9.45382 7.53026 9.44588C4.97315 8.68834 1.45042 10.3711 8.2925e-09 11.1871C1.22694 13.2168 3.69001 14.8887 5.87993 15.5587C6.28184 15.281 6.69518 15.0477 7.11113 14.8772Z" fill="black" fill-opacity="0.2"/>
<path d="M9.74982 19.842C12.1406 18.6466 14.0902 15.9994 14.3933 14.1518C13.1156 14.912 9.55306 16.1672 7.04866 15.8224C6.6745 15.7709 6.28182 15.6817 5.87993 15.5587C3.89747 16.9288 2.19351 19.3806 1.83032 20.7158C4.6588 21.3065 7.51814 20.9578 9.74982 19.842Z" fill="#C9C9C9"/>
<path d="M9.74982 19.842C12.1406 18.6466 14.0902 15.9994 14.3933 14.1518C13.1156 14.912 9.55306 16.1672 7.04866 15.8224C6.6745 15.7709 6.28182 15.6817 5.87993 15.5587C3.89747 16.9288 2.19351 19.3806 1.83032 20.7158C4.6588 21.3065 7.51814 20.9578 9.74982 19.842Z" fill="url(#paint4_linear_78_28)"/>
<path d="M9.74982 19.842C12.1406 18.6466 14.0902 15.9994 14.3933 14.1518C13.1156 14.912 9.55306 16.1672 7.04866 15.8224C6.6745 15.7709 6.28182 15.6817 5.87993 15.5587C3.89747 16.9288 2.19351 19.3806 1.83032 20.7158C4.6588 21.3065 7.51814 20.9578 9.74982 19.842Z" fill="black" fill-opacity="0.2"/>
<path d="M17.913 -1.32782e-08C16.5967 0.691032 14.4708 2.74216 13.4542 5.05677C13.2911 5.4283 13.1677 5.82657 13.0799 6.24424C13.1282 6.32039 13.1741 6.39726 13.2173 6.47483C14.4355 8.66131 14.4108 11.7897 14.3961 13.6371C14.3947 13.8221 14.3933 13.9947 14.3933 14.1518C14.572 12.6655 15.7445 9.32731 17.8432 7.67204C18.2508 7.35061 18.7122 7.06158 19.2132 6.80745C19.4183 4.31809 18.4713 1.37462 17.913 -1.32782e-08Z" fill="url(#paint5_linear_78_28)"/>
<path d="M17.913 -1.32782e-08C16.5967 0.691032 14.4708 2.74216 13.4542 5.05677C13.2911 5.4283 13.1677 5.82657 13.0799 6.24424C13.1282 6.32039 13.1741 6.39726 13.2173 6.47483C14.4355 8.66131 14.4108 11.7897 14.3961 13.6371C14.3947 13.8221 14.3933 13.9947 14.3933 14.1518C14.572 12.6655 15.7445 9.32731 17.8432 7.67204C18.2508 7.35061 18.7122 7.06158 19.2132 6.80745C19.4183 4.31809 18.4713 1.37462 17.913 -1.32782e-08Z" fill="black" fill-opacity="0.2"/>
<path d="M19.0182 7.96574C18.3258 10.5412 15.7319 13.2122 14.3933 14.1518L14.454 14.1502C16.1885 14.1031 19.3005 14.0187 21.5287 12.3919C23.6827 10.8193 25.4994 7.20334 25.6567 5.54658C23.4523 5.40659 21.0632 5.86902 19.2132 6.80745C19.1802 7.20812 19.1174 7.59703 19.0182 7.96574Z" fill="url(#paint6_linear_78_28)"/>
<path d="M19.0182 7.96574C18.3258 10.5412 15.7319 13.2122 14.3933 14.1518L14.454 14.1502C16.1885 14.1031 19.3005 14.0187 21.5287 12.3919C23.6827 10.8193 25.4994 7.20334 25.6567 5.54658C23.4523 5.40659 21.0632 5.86902 19.2132 6.80745C19.1802 7.20812 19.1174 7.59703 19.0182 7.96574Z" fill="url(#paint7_linear_78_28)"/>
<path d="M19.0182 7.96574C18.3258 10.5412 15.7319 13.2122 14.3933 14.1518L14.454 14.1502C16.1885 14.1031 19.3005 14.0187 21.5287 12.3919C23.6827 10.8193 25.4994 7.20334 25.6567 5.54658C23.4523 5.40659 21.0632 5.86902 19.2132 6.80745C19.1802 7.20812 19.1174 7.59703 19.0182 7.96574Z" fill="black" fill-opacity="0.2"/>
<defs>
<linearGradient id="paint0_linear_78_28" x1="12.8283" y1="-9.50911e-09" x2="12.8283" y2="21" gradientUnits="userSpaceOnUse">
<stop stop-color="#AEAEAE"/>
<stop offset="1" stop-color="#646464"/>
</linearGradient>
<linearGradient id="paint1_linear_78_28" x1="12.8283" y1="-9.50911e-09" x2="12.8283" y2="21" gradientUnits="userSpaceOnUse">
<stop stop-color="#AEAEAE"/>
<stop offset="1" stop-color="#646464"/>
</linearGradient>
<linearGradient id="paint2_linear_78_28" x1="12.8283" y1="-9.5091e-09" x2="12.8283" y2="21" gradientUnits="userSpaceOnUse">
<stop stop-color="#A8A8A8"/>
<stop offset="0.557692" stop-color="#838383"/>
</linearGradient>
<linearGradient id="paint3_linear_78_28" x1="12.8283" y1="-9.50911e-09" x2="12.8283" y2="21" gradientUnits="userSpaceOnUse">
<stop stop-color="#DEDEDE"/>
<stop offset="1" stop-color="#B8B8B8"/>
</linearGradient>
<linearGradient id="paint4_linear_78_28" x1="12.8283" y1="-9.50911e-09" x2="12.8283" y2="21" gradientUnits="userSpaceOnUse">
<stop stop-color="white"/>
<stop offset="1" stop-color="#C9C9C9"/>
</linearGradient>
<linearGradient id="paint5_linear_78_28" x1="12.8283" y1="-9.50911e-09" x2="12.8283" y2="21" gradientUnits="userSpaceOnUse">
<stop stop-color="#DEDEDE"/>
<stop offset="1" stop-color="#B8B8B8"/>
</linearGradient>
<linearGradient id="paint6_linear_78_28" x1="12.8283" y1="-9.50911e-09" x2="12.8283" y2="21" gradientUnits="userSpaceOnUse">
<stop stop-color="white"/>
<stop offset="1" stop-color="#C9C9C9"/>
</linearGradient>
<linearGradient id="paint7_linear_78_28" x1="12.8283" y1="-9.50911e-09" x2="12.8283" y2="21" gradientUnits="userSpaceOnUse">
<stop stop-color="white"/>
<stop offset="1" stop-color="#C9C9C9"/>
</linearGradient>
</defs>
</svg>
