<svg width="400" height="400" viewBox="0 0 400 400" fill="none" xmlns="http://www.w3.org/2000/svg">
<g clip-path="url(#clip0_50_222)">
<path d="M360 0H40C17.9086 0 0 17.9086 0 40V360C0 382.091 17.9086 400 40 400H360C382.091 400 400 382.091 400 360V40C400 17.9086 382.091 0 360 0Z" fill="white"/>
<path d="M117.5 34V221" stroke="#333F48" stroke-width="8" stroke-linecap="round"/>
<path d="M67.647 35C74.854 35 80.706 40.851 80.706 48.059C80.706 55.266 74.854 61.118 67.647 61.118C60.44 61.118 54.588 55.266 54.588 48.059C54.588 40.851 60.44 35 67.647 35ZM45.882 86.147V136.184C45.882 139.187 43.444 141.625 40.441 141.625C37.438 141.625 35 139.187 35 136.184V76.353C35 73.467 36.147 70.699 38.187 68.658C40.228 66.617 42.996 65.471 45.882 65.471H89.412C92.298 65.471 95.066 66.617 97.107 68.658C99.148 70.699 100.294 73.467 100.294 76.353V136.184C100.294 139.187 97.856 141.625 94.853 141.625C91.85 141.625 89.412 139.187 89.412 136.184V86.147C89.412 84.946 88.437 83.971 87.235 83.971C86.034 83.971 85.059 84.946 85.059 86.147V212.382C85.059 216.587 81.645 220 77.441 220C73.237 220 69.824 216.587 69.824 212.382V138.382C69.824 137.181 68.848 136.206 67.647 136.206C66.446 136.206 65.471 137.181 65.471 138.382V212.382C65.471 216.587 62.057 220 57.853 220C53.649 220 50.235 216.587 50.235 212.382V86.147C50.235 84.946 49.26 83.971 48.059 83.971C46.858 83.971 45.882 84.946 45.882 86.147Z" fill="#333F48"/>
<path d="M168.611 35C175.818 35 181.67 40.851 181.67 48.059C181.67 55.266 175.818 61.118 168.611 61.118C161.403 61.118 155.552 55.266 155.552 48.059C155.552 40.851 161.403 35 168.611 35ZM152.287 167.221H134.876L153.695 110.239C154.204 108.697 154.464 107.084 154.464 105.461V86.147C154.464 84.946 153.489 83.971 152.287 83.971C151.086 83.971 150.111 84.946 150.111 86.147V105.461C150.111 106.621 149.925 107.773 149.562 108.874L140.331 136.824C139.389 139.676 136.309 141.226 133.457 140.284C130.606 139.343 129.055 136.263 129.997 133.411L139.228 105.461V82.882C139.228 73.266 147.024 65.471 156.64 65.471H180.581C190.198 65.471 197.993 73.266 197.993 82.882V105.461L207.224 133.411C208.166 136.263 206.616 139.343 203.764 140.284C200.913 141.226 197.833 139.676 196.891 136.824L187.66 108.874C187.296 107.773 187.111 106.621 187.111 105.461V86.147C187.111 84.946 186.136 83.971 184.934 83.971C183.733 83.971 182.758 84.946 182.758 86.147V105.461C182.758 107.084 183.017 108.697 183.526 110.239L202.346 167.221H184.934V212.926C184.934 216.83 181.765 220 177.861 220C173.957 220 170.787 216.83 170.787 212.926V167.221H166.434V212.926C166.434 216.83 163.265 220 159.361 220C155.457 220 152.287 216.83 152.287 212.926V167.221Z" fill="#333F48"/>
<path d="M290.818 125C302.057 125 311.182 134.125 311.182 145.364C311.182 156.603 302.057 165.727 290.818 165.727C279.579 165.727 270.455 156.603 270.455 145.364C270.455 134.125 279.579 125 290.818 125ZM220.065 301H234.742C238.958 328.978 263.127 350.455 292.273 350.455C324.384 350.455 350.455 324.384 350.455 292.273C350.455 268.108 335.691 247.365 314.7 238.578L317.54 224.062C345.239 234.338 365 261.016 365 292.273C365 332.412 332.412 365 292.273 365C255.087 365 224.382 337.031 220.065 301ZM313.683 198.308L313.685 198.309L298.752 274.643C296.749 284.884 287.775 292.273 277.34 292.273H214.332L190.912 346.032C188.942 350.77 184.266 354.105 178.818 354.105C171.593 354.105 165.727 348.24 165.727 341.015C165.727 339.082 166.147 337.247 166.9 335.596L196.606 267.408C198.686 262.633 203.399 259.545 208.608 259.545H257.242L261.439 238.091H227.182C221.964 238.091 217.727 233.854 217.727 228.636C217.727 223.418 221.964 219.182 227.182 219.182H265.138L270.749 190.499C272.465 180.163 281.454 172.273 292.273 172.273C304.315 172.273 314.091 182.049 314.091 194.091C314.091 195.534 313.951 196.944 313.683 198.308Z" fill="#333F48"/>
</g>
<defs>
<clipPath id="clip0_50_222">
<rect width="400" height="400" fill="white"/>
</clipPath>
</defs>
</svg>
