<svg width="400" height="400" viewBox="0 0 400 400" fill="none" xmlns="http://www.w3.org/2000/svg">
<g clip-path="url(#clip0_50_249)">
<path d="M360 0H40C17.9086 0 0 17.9086 0 40V360C0 382.091 17.9086 400 40 400H360C382.091 400 400 382.091 400 360V40C400 17.9086 382.091 0 360 0Z" fill="white"/>
<path d="M180 360H365V247.5H315V275H270V302.5H225V330H180V360Z" fill="#333F48"/>
<path d="M115 245H285" stroke="#333F48" stroke-width="20" stroke-linecap="round"/>
<path d="M178.727 67.242C187.63 67.242 194.848 60.0244 194.848 51.121C194.848 42.2176 187.63 35 178.727 35C169.824 35 162.606 42.2176 162.606 51.121C162.606 60.0244 169.824 67.242 178.727 67.242Z" fill="#333F48"/>
<path d="M234.74 174.333C231.323 202.858 207.015 225 177.576 225C145.799 225 120 199.201 120 167.424C120 142.679 135.644 121.56 157.573 113.424L159.821 124.916C143.203 131.872 131.515 148.294 131.515 167.424C131.515 192.846 152.154 213.485 177.576 213.485C200.649 213.485 219.783 196.482 223.121 174.333H234.74ZM160.626 93.0361C160.414 91.9551 160.303 90.8391 160.303 89.6971C160.303 80.1641 168.043 72.4241 177.576 72.4241C186.14 72.4241 193.257 78.6711 194.615 86.8531L199.057 109.561H229.106C233.237 109.561 236.591 112.914 236.591 117.045C236.591 121.176 233.237 124.53 229.106 124.53H201.986L205.308 141.515H243.811C247.934 141.515 251.665 143.959 253.312 147.74L276.829 201.722C277.425 203.029 277.758 204.482 277.758 206.012C277.758 211.731 273.114 216.375 267.394 216.375C263.081 216.375 259.38 213.735 257.82 209.983L239.279 167.424H189.398C181.137 167.424 174.032 161.575 172.446 153.468L160.624 93.0361H160.626Z" fill="#333F48"/>
<path d="M341.698 144.928L299.263 169.428L291.263 155.572L333.698 131.072L309.109 124.483L328.595 113.233L364.795 122.933L354.595 158.267L335.109 169.517L341.698 144.928Z" fill="#333F48"/>
<path d="M58.3019 290.072L100.737 265.572L108.737 279.428L66.3019 303.928L90.8903 310.517L71.4048 321.767L35.2051 312.067L45.4048 276.733L64.8903 265.483L58.3019 290.072Z" fill="#333F48"/>
</g>
<defs>
<clipPath id="clip0_50_249">
<rect width="400" height="400" fill="white"/>
</clipPath>
</defs>
</svg>
