<svg width="400" height="400" viewBox="0 0 400 400" fill="none" xmlns="http://www.w3.org/2000/svg">
<g clip-path="url(#clip0_50_222)">
<path d="M360 0C382.091 0 400 17.9086 400 40V360C400 382.091 382.091 400 360 400H40C17.9086 400 0 382.091 0 360V40C0 17.9086 17.9086 0 40 0H360ZM314.7 238.578C335.691 247.365 350.455 268.109 350.455 292.273C350.455 324.384 324.384 350.455 292.273 350.455C263.127 350.455 238.958 328.978 234.742 301H220.065C224.382 337.031 255.087 365 292.273 365C332.412 365 365 332.412 365 292.273C365 261.016 345.239 234.338 317.54 224.062L314.7 238.578ZM292.273 172.273C281.454 172.273 272.465 180.163 270.749 190.499L265.138 219.182H227.182C221.964 219.182 217.727 223.418 217.727 228.636C217.727 233.854 221.964 238.091 227.182 238.091H261.439L257.242 259.545H208.608C203.399 259.545 198.686 262.633 196.606 267.408L166.9 335.596C166.147 337.247 165.727 339.082 165.727 341.015C165.727 348.24 171.593 354.105 178.818 354.105C184.266 354.105 188.942 350.77 190.912 346.032L214.332 292.273H277.34C287.775 292.273 296.749 284.884 298.752 274.643L313.685 198.309L313.683 198.308C313.951 196.944 314.091 195.534 314.091 194.091C314.091 182.049 304.315 172.274 292.273 172.273ZM117.5 30C115.291 30 113.5 31.7909 113.5 34V221C113.5 223.209 115.291 225 117.5 225C119.709 225 121.5 223.209 121.5 221V34C121.5 31.7909 119.709 30 117.5 30ZM45.8818 65.4707C42.9959 65.4707 40.2275 66.6172 38.1865 68.6582C36.1468 70.6991 35.0001 73.4669 35 76.3525V136.184C35 139.187 37.4384 141.625 40.4414 141.625C43.4442 141.625 45.8818 139.186 45.8818 136.184V86.1475C45.8818 84.9466 46.8578 83.9709 48.0586 83.9707C49.2596 83.9707 50.2354 84.9465 50.2354 86.1475V212.382C50.2354 216.587 53.6488 220 57.8525 220C62.0565 220 65.4707 216.587 65.4707 212.382V138.382C65.4708 137.181 66.4465 136.206 67.6475 136.206C68.8482 136.206 69.8241 137.181 69.8242 138.382V212.382C69.8242 216.587 73.2374 220 77.4414 220C81.6452 220 85.0586 216.587 85.0586 212.382V86.1475C85.0586 84.9465 86.0344 83.9707 87.2354 83.9707C88.4372 83.9709 89.4121 84.9466 89.4121 86.1475V136.184C89.4121 139.186 91.8498 141.625 94.8525 141.625C97.8555 141.625 100.294 139.187 100.294 136.184V76.3525C100.294 73.4668 99.1481 70.6991 97.1074 68.6582C95.0664 66.6172 92.2981 65.4707 89.4121 65.4707H45.8818ZM156.64 65.4707C147.024 65.4709 139.228 73.266 139.228 82.8818V105.461L129.997 133.411C129.055 136.263 130.606 139.343 133.457 140.284C136.309 141.226 139.389 139.676 140.331 136.824L149.562 108.874C149.925 107.773 150.111 106.621 150.111 105.461V86.1475C150.111 84.9465 151.086 83.9707 152.287 83.9707C153.489 83.9708 154.464 84.9465 154.464 86.1475V105.461C154.464 107.084 154.204 108.697 153.695 110.239L134.876 167.221H152.287V212.926C152.287 216.83 155.457 220 159.361 220C163.265 220 166.434 216.83 166.434 212.926V167.221H170.787V212.926C170.787 216.83 173.957 220 177.861 220C181.765 220 184.934 216.83 184.934 212.926V167.221H202.346L183.526 110.239C183.017 108.697 182.758 107.084 182.758 105.461V86.1475C182.758 84.9466 183.733 83.9709 184.934 83.9707C186.136 83.9707 187.111 84.9465 187.111 86.1475V105.461C187.111 106.621 187.296 107.773 187.66 108.874L196.891 136.824C197.833 139.676 200.913 141.226 203.764 140.284C206.616 139.343 208.166 136.263 207.224 133.411L197.993 105.461V82.8818C197.993 73.2659 190.198 65.4707 180.581 65.4707H156.64ZM290.818 125C279.579 125 270.455 134.125 270.455 145.364C270.455 156.603 279.579 165.727 290.818 165.727C302.057 165.726 311.182 156.603 311.182 145.364C311.182 134.125 302.057 125 290.818 125ZM67.6475 35C60.4406 35 54.5881 40.8508 54.5879 48.0586C54.5879 55.2656 60.4405 61.1182 67.6475 61.1182C74.8543 61.1179 80.7061 55.2654 80.7061 48.0586C80.7058 40.8509 74.8541 35.0002 67.6475 35ZM168.611 35C161.403 35 155.552 40.8508 155.552 48.0586C155.552 55.2656 161.403 61.1182 168.611 61.1182C175.818 61.118 181.67 55.2655 181.67 48.0586C181.67 40.8509 175.818 35.0002 168.611 35Z" fill="black"/>
</g>
<defs>
<clipPath id="clip0_50_222">
<rect width="400" height="400" fill="white"/>
</clipPath>
</defs>
</svg>
