<svg width="400" height="400" viewBox="0 0 400 400" fill="none" xmlns="http://www.w3.org/2000/svg">
<g clip-path="url(#clip0_50_242)">
<path d="M360 0C382.091 0 400 17.9086 400 40V360C400 382.091 382.091 400 360 400H40C17.9086 400 0 382.091 0 360V40C0 17.9086 17.9086 0 40 0H360ZM25 355H365V280L25 355ZM117.737 145.619C86.8063 157.094 64.7393 186.885 64.7393 221.788C64.7393 266.61 101.129 303 145.952 303C187.476 303 221.763 271.768 226.584 231.533H210.194C205.486 262.775 178.497 286.758 145.952 286.758C110.094 286.758 80.9825 257.646 80.9824 221.788C80.9824 194.804 97.4672 171.641 120.908 161.828L117.737 145.619ZM145.952 87.7881C132.505 87.7881 121.588 98.7053 121.588 112.152C121.588 113.762 121.745 115.337 122.044 116.861H122.041L138.716 202.102C140.953 213.537 150.974 221.788 162.627 221.788H232.985L259.138 281.819C261.338 287.11 266.559 290.834 272.642 290.834C280.71 290.834 287.261 284.284 287.261 276.216C287.261 274.059 286.792 272.01 285.951 270.165L252.779 194.022C250.456 188.69 245.194 185.242 239.378 185.242H185.069L180.382 161.285H218.636C224.463 161.285 229.194 156.554 229.194 150.727C229.194 144.9 224.463 140.17 218.636 140.17H176.252L169.986 108.14C168.071 96.5988 158.032 87.7882 145.952 87.7881ZM147.576 35C135.018 35 124.837 45.1809 124.837 57.7393C124.837 70.2975 135.018 80.4775 147.576 80.4775C160.134 80.4774 170.315 70.2975 170.315 57.7393C170.315 45.1809 160.134 35.0001 147.576 35Z" fill="black"/>
</g>
<defs>
<clipPath id="clip0_50_242">
<rect width="400" height="400" fill="white"/>
</clipPath>
</defs>
</svg>
