<svg width="400" height="400" viewBox="0 0 400 400" fill="none" xmlns="http://www.w3.org/2000/svg">
<g clip-path="url(#clip0_50_229)">
<path d="M360 0H40C17.9086 0 0 17.9086 0 40V360C0 382.091 17.9086 400 40 400H360C382.091 400 400 382.091 400 360V40C400 17.9086 382.091 0 360 0Z" fill="white"/>
<path d="M170 91C185.464 91 198 78.464 198 63C198 47.536 185.464 35 170 35C154.536 35 142 47.536 142 63C142 78.464 154.536 91 170 91Z" fill="#333F48"/>
<path d="M269.536 279.25C263.6 328.793 221.381 367.25 170.25 367.25C115.058 367.25 70.25 322.442 70.25 267.25C70.25 224.272 97.421 187.59 135.508 173.46L139.412 193.419C110.549 205.502 90.25 234.024 90.25 267.25C90.25 311.403 126.097 347.25 170.25 347.25C210.325 347.25 243.557 317.719 249.354 279.25H269.536ZM140.811 138.049C140.443 136.173 140.25 134.234 140.25 132.25C140.25 115.693 153.693 102.25 170.25 102.25C185.125 102.25 197.486 113.1 199.845 127.311L207.56 166.75H259.75C266.925 166.75 272.75 172.575 272.75 179.75C272.75 186.925 266.925 192.75 259.75 192.75H212.646L218.417 222.25H285.29C292.451 222.25 298.931 226.495 301.792 233.061L342.638 326.819C343.673 329.09 344.25 331.613 344.25 334.27C344.25 344.204 336.184 352.27 326.25 352.27C318.759 352.27 312.33 347.684 309.621 341.168L277.418 267.25H190.783C176.435 267.25 164.095 257.091 161.341 243.01L140.808 138.05L140.811 138.049Z" fill="#333F48"/>
</g>
<defs>
<clipPath id="clip0_50_229">
<rect width="400" height="400" fill="white"/>
</clipPath>
</defs>
</svg>
