<svg width="400" height="400" viewBox="0 0 400 400" fill="none" xmlns="http://www.w3.org/2000/svg">
<g clip-path="url(#clip0_50_242)">
<path d="M360 0H40C17.9086 0 0 17.9086 0 40V360C0 382.091 17.9086 400 40 400H360C382.091 400 400 382.091 400 360V40C400 17.9086 382.091 0 360 0Z" fill="white"/>
<path d="M147.576 80.478C160.134 80.478 170.315 70.2974 170.315 57.739C170.315 45.1806 160.134 35 147.576 35C135.018 35 124.837 45.1806 124.837 57.739C124.837 70.2974 135.018 80.478 147.576 80.478Z" fill="#333F48"/>
<path d="M226.584 231.533C221.763 271.768 187.476 303 145.952 303C101.129 303 64.739 266.61 64.739 221.788C64.739 186.885 86.806 157.094 117.737 145.619L120.908 161.828C97.467 171.641 80.982 194.804 80.982 221.788C80.982 257.646 110.094 286.758 145.952 286.758C178.497 286.758 205.486 262.775 210.194 231.533H226.584ZM122.044 116.861C121.745 115.337 121.588 113.762 121.588 112.152C121.588 98.7051 132.505 87.7881 145.952 87.7881C158.032 87.7881 168.071 96.5991 169.986 108.14L176.252 140.17H218.636C224.463 140.17 229.194 144.9 229.194 150.727C229.194 156.554 224.463 161.285 218.636 161.285H180.382L185.069 185.242H239.378C245.194 185.242 250.456 188.69 252.779 194.022L285.951 270.165C286.792 272.01 287.261 274.059 287.261 276.216C287.261 284.284 280.71 290.834 272.642 290.834C266.559 290.834 261.338 287.11 259.138 281.819L232.985 221.788H162.627C150.974 221.788 140.953 213.537 138.716 202.102L122.041 116.861H122.044Z" fill="#333F48"/>
<path d="M25 355H365V280L25 355Z" fill="#333F48"/>
</g>
<defs>
<clipPath id="clip0_50_242">
<rect width="400" height="400" fill="white"/>
</clipPath>
</defs>
</svg>
