<svg width="400" height="400" viewBox="0 0 400 400" fill="none" xmlns="http://www.w3.org/2000/svg">
<g clip-path="url(#clip0_50_229)">
<path d="M360 0C382.091 0 400 17.9086 400 40V360C400 382.091 382.091 400 360 400H40C17.9086 400 0 382.091 0 360V40C0 17.9086 17.9086 0 40 0H360ZM135.508 173.46C97.4209 187.59 70.25 224.272 70.25 267.25C70.25 322.442 115.058 367.25 170.25 367.25C221.381 367.25 263.6 328.793 269.536 279.25H249.354C243.557 317.719 210.325 347.25 170.25 347.25C126.097 347.25 90.25 311.403 90.25 267.25C90.25 234.024 110.549 205.502 139.412 193.419L135.508 173.46ZM170.25 102.25C153.693 102.25 140.25 115.693 140.25 132.25C140.25 134.234 140.443 136.173 140.811 138.049L140.808 138.05L161.341 243.01C164.095 257.091 176.435 267.25 190.783 267.25H277.418L309.621 341.168C312.33 347.684 318.759 352.27 326.25 352.27C336.184 352.27 344.25 344.204 344.25 334.27C344.25 331.613 343.673 329.09 342.638 326.819L301.792 233.061C298.931 226.495 292.451 222.25 285.29 222.25H218.417L212.646 192.75H259.75C266.925 192.75 272.75 186.925 272.75 179.75C272.75 172.575 266.925 166.75 259.75 166.75H207.56L199.845 127.311C197.486 113.1 185.125 102.25 170.25 102.25ZM170 35C154.536 35 142 47.536 142 63C142 78.464 154.536 91 170 91C185.464 91 198 78.464 198 63C198 47.536 185.464 35 170 35Z" fill="black"/>
</g>
<defs>
<clipPath id="clip0_50_229">
<rect width="400" height="400" fill="white"/>
</clipPath>
</defs>
</svg>
