<svg width="400" height="400" viewBox="0 0 400 400" fill="none" xmlns="http://www.w3.org/2000/svg">
<g clip-path="url(#clip0_50_200)">
<path d="M360 0H40C17.9086 0 0 17.9086 0 40V360C0 382.091 17.9086 400 40 400H360C382.091 400 400 382.091 400 360V40C400 17.9086 382.091 0 360 0Z" fill="white"/>
<path d="M177.767 83.458C191.148 83.458 201.996 72.6103 201.996 59.229C201.996 45.8477 191.148 35 177.767 35C164.386 35 153.538 45.8477 153.538 59.229C153.538 72.6103 164.386 83.458 177.767 83.458Z" fill="#333F48"/>
<path d="M263.897 246.353C258.76 289.223 222.228 322.5 177.983 322.5C130.225 322.5 91.452 283.727 91.452 235.969C91.452 198.779 114.964 167.038 147.921 154.811L151.299 172.082C126.323 182.537 108.758 207.218 108.758 235.969C108.758 274.175 139.777 305.194 177.983 305.194C212.661 305.194 241.417 279.64 246.433 246.353H263.897ZM152.51 124.17C152.191 122.546 152.024 120.868 152.024 119.152C152.024 104.825 163.656 93.1919 177.983 93.1919C190.855 93.1919 201.551 102.581 203.592 114.878L210.268 149.005H255.429C261.638 149.005 266.678 154.045 266.678 160.254C266.678 166.463 261.638 171.503 255.429 171.503H214.669L219.663 197.03H277.529C283.725 197.03 289.333 200.703 291.808 206.385L327.153 287.515C328.048 289.48 328.548 291.663 328.548 293.962C328.548 302.558 321.568 309.538 312.972 309.538C306.49 309.538 300.927 305.569 298.583 299.931L270.717 235.969H195.751C183.335 235.969 172.657 227.178 170.274 214.994L152.507 124.17H152.51Z" fill="#333F48"/>
<path d="M370 335H30V355H370V335Z" fill="#333F48"/>
</g>
<defs>
<clipPath id="clip0_50_200">
<rect width="400" height="400" fill="white"/>
</clipPath>
</defs>
</svg>
