<svg width="400" height="400" viewBox="0 0 400 400" fill="none" xmlns="http://www.w3.org/2000/svg">
<g clip-path="url(#clip0_50_200)">
<path d="M360 0C382.091 0 400 17.9086 400 40V360C400 382.091 382.091 400 360 400H40C17.9086 400 0 382.091 0 360V40C0 17.9086 17.9086 0 40 0H360ZM30 355H370V335H30V355ZM147.921 154.811C114.964 167.038 91.4523 198.779 91.4521 235.969C91.4521 283.727 130.225 322.5 177.983 322.5C222.228 322.5 258.76 289.222 263.897 246.353H246.433C241.417 279.639 212.661 305.194 177.983 305.194C139.777 305.194 108.758 274.175 108.758 235.969C108.758 207.218 126.323 182.537 151.299 172.082L147.921 154.811ZM177.983 93.1924C163.656 93.1924 152.024 104.825 152.024 119.152C152.024 120.868 152.191 122.546 152.51 124.17H152.507L170.274 214.994C172.657 227.178 183.335 235.969 195.751 235.969H270.717L298.583 299.931C300.927 305.569 306.49 309.538 312.972 309.538C321.568 309.538 328.548 302.558 328.548 293.962C328.548 291.663 328.048 289.48 327.153 287.515L291.808 206.385C289.333 200.703 283.725 197.03 277.529 197.03H219.663L214.669 171.503H255.429C261.638 171.503 266.678 166.463 266.678 160.254C266.678 154.045 261.638 149.005 255.429 149.005H210.268L203.592 114.878C201.551 102.581 190.855 93.1926 177.983 93.1924ZM177.767 35C164.386 35.0002 153.538 45.8476 153.538 59.2285C153.538 72.6097 164.385 83.4578 177.767 83.458C191.148 83.458 201.996 72.6098 201.996 59.2285C201.996 45.8474 191.148 35 177.767 35Z" fill="black"/>
</g>
<defs>
<clipPath id="clip0_50_200">
<rect width="400" height="400" fill="white"/>
</clipPath>
</defs>
</svg>
