<svg width="400" height="400" viewBox="0 0 400 400" fill="none" xmlns="http://www.w3.org/2000/svg">
<g clip-path="url(#clip0_50_249)">
<path d="M360 0C382.091 0 400 17.9086 400 40V360C400 382.091 382.091 400 360 400H40C17.9086 400 0 382.091 0 360V40C0 17.9086 17.9086 0 40 0H360ZM315 275H270V302.5H225V330H180V360H365V247.5H315V275ZM45.4043 276.733L35.2051 312.067L71.4043 321.767L90.8906 310.517L66.3018 303.928L108.737 279.428L100.737 265.572L58.3018 290.072L64.8906 265.483L45.4043 276.733ZM115 235C109.477 235 105 239.477 105 245C105 250.523 109.477 255 115 255H285C290.523 255 295 250.523 295 245C295 239.477 290.523 235 285 235H115ZM157.573 113.424C135.644 121.56 120 142.679 120 167.424C120 199.201 145.799 225 177.576 225C207.015 225 231.323 202.858 234.74 174.333H223.121C219.783 196.482 200.649 213.485 177.576 213.485C152.154 213.485 131.515 192.846 131.515 167.424C131.515 148.294 143.203 131.872 159.821 124.916L157.573 113.424ZM177.576 72.4238C168.043 72.4238 160.303 80.1643 160.303 89.6973C160.303 90.8392 160.414 91.9552 160.626 93.0361H160.624L172.446 153.468C174.032 161.575 181.137 167.424 189.397 167.424H239.279L257.82 209.983C259.38 213.735 263.081 216.375 267.394 216.375C273.114 216.375 277.758 211.731 277.758 206.012C277.758 204.482 277.425 203.029 276.829 201.722L253.312 147.74C251.665 143.959 247.934 141.515 243.811 141.515H205.308L201.986 124.53H229.105C233.236 124.53 236.591 121.176 236.591 117.045C236.591 112.914 233.236 109.561 229.105 109.561H199.057L194.615 86.8525C193.257 78.6708 186.14 72.424 177.576 72.4238ZM309.109 124.483L333.698 131.072L291.263 155.572L299.263 169.428L341.698 144.928L335.109 169.517L354.595 158.267L364.795 122.933L328.595 113.233L309.109 124.483ZM178.727 35C169.823 35.0002 162.605 42.2178 162.605 51.1211C162.606 60.0243 169.823 67.242 178.727 67.2422C187.63 67.2422 194.848 60.0244 194.848 51.1211C194.848 42.2177 187.63 35 178.727 35Z" fill="black"/>
</g>
<defs>
<clipPath id="clip0_50_249">
<rect width="400" height="400" fill="white"/>
</clipPath>
</defs>
</svg>
