<svg width="400" height="400" viewBox="0 0 400 400" fill="none" xmlns="http://www.w3.org/2000/svg">
<g clip-path="url(#clip0_50_207)">
<path d="M360 0H40C17.9086 0 0 17.9086 0 40V360C0 382.091 17.9086 400 40 400H360C382.091 400 400 382.091 400 360V40C400 17.9086 382.091 0 360 0Z" fill="white"/>
<path d="M80 35H45V365H80V35Z" fill="#333F48"/>
<path d="M355 36H320V366H355V36Z" fill="#333F48"/>
<path d="M297.5 118.5V281.5C297.5 290.331 290.331 297.5 281.5 297.5H118.5C109.669 297.5 102.5 290.331 102.5 281.5V118.5C102.5 109.669 109.669 102.5 118.5 102.5H281.5C290.331 102.5 297.5 109.669 297.5 118.5ZM282.5 122.5C282.5 119.74 280.26 117.5 277.5 117.5H122.5C119.74 117.5 117.5 119.74 117.5 122.5V277.5C117.5 280.26 119.74 282.5 122.5 282.5H277.5C280.26 282.5 282.5 280.26 282.5 277.5V122.5Z" fill="#333F48"/>
<path d="M178.273 156.258C184.834 156.258 190.152 150.94 190.152 144.379C190.152 137.818 184.834 132.5 178.273 132.5C171.712 132.5 166.394 137.818 166.394 144.379C166.394 150.94 171.712 156.258 178.273 156.258Z" fill="#333F48"/>
<path d="M219.546 235.167C217.027 256.185 199.116 272.5 177.424 272.5C154.01 272.5 135 253.49 135 230.076C135 211.843 146.527 196.281 162.685 190.286L164.342 198.754C152.097 203.879 143.485 215.98 143.485 230.076C143.485 248.807 158.693 264.015 177.424 264.015C194.426 264.015 208.524 251.487 210.984 235.167H219.546ZM164.935 175.263C164.779 174.467 164.697 173.645 164.697 172.803C164.697 165.779 170.4 160.076 177.424 160.076C183.735 160.076 188.979 164.679 189.979 170.707L193.253 187.439H215.394C218.438 187.439 220.909 189.911 220.909 192.955C220.909 195.998 218.438 198.47 215.394 198.47H195.41L197.859 210.985H226.229C229.267 210.985 232.016 212.786 233.23 215.571L250.559 255.348C250.998 256.311 251.242 257.381 251.242 258.508C251.242 262.723 247.821 266.145 243.606 266.145C240.428 266.145 237.701 264.199 236.551 261.435L222.89 230.076H186.135C180.048 230.076 174.813 225.766 173.645 219.792L164.935 175.263Z" fill="#333F48"/>
<path d="M252 151C256.418 151 260 147.418 260 143C260 138.582 256.418 135 252 135C247.582 135 244 138.582 244 143C244 147.418 247.582 151 252 151Z" fill="#333F48"/>
<path d="M252 172.48C256.418 172.48 260 168.898 260 164.48C260 160.062 256.418 156.48 252 156.48C247.582 156.48 244 160.062 244 164.48C244 168.898 247.582 172.48 252 172.48Z" fill="#333F48"/>
<path d="M252 193.96C256.418 193.96 260 190.378 260 185.96C260 181.542 256.418 177.96 252 177.96C247.582 177.96 244 181.542 244 185.96C244 190.378 247.582 193.96 252 193.96Z" fill="#333F48"/>
<path d="M207 67.199V90H193V67L178 82V62L200 40L222 63V82L207 67.199Z" fill="#333F48"/>
<path d="M193 337.801V315H207V338L222 323V343L200 365L178 342V323L193 337.801Z" fill="#333F48"/>
</g>
<defs>
<clipPath id="clip0_50_207">
<rect width="400" height="400" fill="white"/>
</clipPath>
</defs>
</svg>
