<svg width="401" height="400" viewBox="0 0 401 400" fill="none" xmlns="http://www.w3.org/2000/svg">
<path d="M360.455 0C382.546 0.000263886 400.455 17.9088 400.455 40V360C400.455 382.091 382.546 400 360.455 400H40.4551C18.3637 400 0.454102 382.091 0.454102 360V40C0.454102 17.9086 18.3637 0 40.4551 0H360.455ZM201.255 32.6191C87.2718 32.6192 62.634 104.77 58.0986 116.505C54.1585 126.7 50.2588 145.016 50.2588 159.625V367.381L85.5381 326.614V159.625C85.5381 147.487 88.748 135.004 94.5537 124.345C99.7604 114.785 121.504 72.6016 200.985 72.6016C280.467 72.6016 301.355 115.052 305.446 124.345C310.337 135.454 314.462 147.487 314.462 159.625V323.739L349.741 367.381V159.625C349.741 145.016 346.678 124.672 341.901 116.505C335.246 105.123 315.238 32.6191 201.255 32.6191ZM144.633 107.098C134.106 107.098 126.305 112.428 126.305 122.467V264.679C126.305 274.718 135.377 284.278 145.904 284.278V304.662L107.489 357.189H131.009L167.072 304.662H232.928L268.991 357.189H292.511L254.095 304.662V284.278C264.622 284.278 273.694 274.718 273.694 264.679V122.467C273.694 112.428 266.657 107.098 256.13 107.098H144.633ZM160.017 236.455C168.309 236.455 175.031 243.836 175.031 251.743C175.031 259.651 168.308 267.031 160.017 267.031C151.724 267.031 145.002 259.651 145.002 251.743C145.002 243.835 151.724 236.455 160.017 236.455ZM238.327 236.455C246.619 236.455 253.342 243.835 253.342 251.743C253.342 259.651 246.619 267.031 238.327 267.031C230.035 267.031 223.313 259.651 223.313 251.743C223.314 243.836 230.035 236.455 238.327 236.455ZM254.095 201.96H145.904V144.729H254.095V201.96ZM220.384 118.073C225.044 118.073 227.439 121.983 227.439 126.427C227.439 130.871 225.044 135.321 220.384 135.321H179.616C174.956 135.321 171.777 130.871 171.776 126.427C171.776 121.983 174.956 118.073 179.616 118.073H220.384Z" fill="black"/>
</svg>
