<svg width="400" height="400" viewBox="0 0 400 400" fill="none" xmlns="http://www.w3.org/2000/svg">
<rect width="400" height="400" rx="40" fill="black"/>
<path d="M254.095 284.279C264.622 284.279 273.695 274.718 273.695 264.679V122.466C273.695 112.427 266.657 107.098 256.13 107.098H144.633C134.105 107.098 126.305 112.427 126.305 122.466V264.679C126.305 274.718 135.377 284.279 145.905 284.279V304.662L107.489 357.19H131.009L167.072 304.662H232.927L268.991 357.19H292.51L254.095 304.662V284.279ZM179.616 118.073H220.383C225.044 118.073 227.439 121.982 227.439 126.426C227.439 130.87 225.044 135.321 220.383 135.321H179.616C174.956 135.321 171.776 130.871 171.776 126.426C171.776 121.982 174.956 118.073 179.616 118.073ZM145.905 144.729H254.095V201.96H145.905V144.729ZM160.016 267.031C151.724 267.031 145.002 259.651 145.002 251.743C145.002 243.836 151.724 236.456 160.016 236.456C168.309 236.456 175.031 243.836 175.031 251.743C175.031 259.651 168.308 267.031 160.016 267.031ZM238.327 267.031C230.035 267.031 223.313 259.651 223.313 251.743C223.313 243.836 230.035 236.456 238.327 236.456C246.62 236.456 253.342 243.836 253.342 251.743C253.342 259.651 246.619 267.031 238.327 267.031Z" fill="white"/>
<path d="M341.902 116.505C335.246 105.125 315.24 32.6187 201.255 32.6187C87.2701 32.6187 62.633 104.772 58.0982 116.505C54.158 126.7 50.2583 145.016 50.2583 159.625V367.381L85.5377 326.614V159.625C85.5377 147.487 88.7479 135.004 94.5536 124.345C99.7599 114.786 121.503 72.602 200.986 72.602C280.468 72.602 301.356 115.053 305.446 124.345C310.337 135.454 314.462 147.487 314.462 159.625V323.739L349.742 367.381V159.625C349.742 145.016 346.678 124.672 341.902 116.505Z" fill="white"/>
</svg>
