<svg width="400" height="400" viewBox="0 0 400 400" fill="none" xmlns="http://www.w3.org/2000/svg">
<rect width="400" height="400" rx="40" fill="black"/>
<path d="M114.286 76.1906H285.714C290.974 76.1906 295.238 80.4545 295.238 85.7144V142.857C295.238 148.117 290.974 152.381 285.714 152.381H114.286C109.026 152.381 104.762 148.117 104.762 142.857V85.7144C104.762 80.4545 109.026 76.1906 114.286 76.1906Z" fill="black"/>
<path d="M109.524 171.429H138.095C140.725 171.429 142.857 173.561 142.857 176.191V185.714C142.857 188.344 140.725 190.476 138.095 190.476H109.524C106.894 190.476 104.762 188.344 104.762 185.714V176.191C104.762 173.561 106.894 171.429 109.524 171.429Z" fill="black"/>
<path d="M261.905 171.429H290.476C293.106 171.429 295.238 173.561 295.238 176.191V185.714C295.238 188.344 293.106 190.476 290.476 190.476H261.905C259.275 190.476 257.143 188.344 257.143 185.714V176.191C257.143 173.561 259.275 171.429 261.905 171.429Z" fill="black"/>
<path fill-rule="evenodd" clip-rule="evenodd" d="M85.7144 238.095L123.81 314.286H161.905V247.619H238.095V314.286H276.191L314.286 238.095V66.6668C290.476 35.7144 244.444 28.5715 219.048 28.5715H180.952C155.556 28.5715 109.524 35.7144 85.7144 66.6668V238.095ZM228.571 257.143H171.429V371.429H228.571V257.143Z" fill="black"/>
<path fill-rule="evenodd" clip-rule="evenodd" d="M123.81 314.286H161.905V247.619H238.095V314.286H276.191L314.286 238.095V66.6668C290.476 35.7144 244.444 28.5715 219.048 28.5715H180.952C155.556 28.5715 109.524 35.7144 85.7144 66.6668V238.095L123.81 314.286ZM285.714 76.1906H114.286C109.026 76.1906 104.762 80.4545 104.762 85.7144V142.857C104.762 148.117 109.026 152.381 114.286 152.381H285.714C290.974 152.381 295.238 148.117 295.238 142.857V85.7144C295.238 80.4545 290.974 76.1906 285.714 76.1906ZM138.095 171.429H109.524C106.894 171.429 104.762 173.561 104.762 176.191V185.714C104.762 188.344 106.894 190.476 109.524 190.476H138.095C140.725 190.476 142.857 188.344 142.857 185.714V176.191C142.857 173.561 140.725 171.429 138.095 171.429ZM290.476 171.429H261.905C259.275 171.429 257.143 173.561 257.143 176.191V185.714C257.143 188.344 259.275 190.476 261.905 190.476H290.476C293.106 190.476 295.238 188.344 295.238 185.714V176.191C295.238 173.561 293.106 171.429 290.476 171.429Z" fill="white"/>
<path d="M171.429 257.143H228.571V371.429H171.429V257.143Z" fill="white"/>
</svg>
