<svg width="400" height="400" viewBox="0 0 400 400" fill="none" xmlns="http://www.w3.org/2000/svg">
<g clip-path="url(#clip0_50_183)">
<path d="M360 0C382.091 0 400 17.9086 400 40V360C400 382.091 382.091 400 360 400H40C17.9086 400 0 382.091 0 360V40C0 17.9086 17.9086 0 40 0H360ZM197.652 297.348C189.846 305.154 189.846 317.827 197.652 325.633L232.26 360.24C238.601 366.582 248.899 366.582 255.24 360.24C261.582 353.899 261.582 343.601 255.24 337.26L234.775 316.794L258.284 293.284L230 265L197.652 297.348ZM286.716 293.284L310.226 316.794L289.76 337.26C283.418 343.601 283.418 353.899 289.76 360.24C296.101 366.582 306.399 366.582 312.74 360.24L347.348 325.633C355.154 317.827 355.154 305.154 347.348 297.348L315 265L286.716 293.284ZM306.926 185.26C287.128 168.247 257.872 168.247 238.074 185.26L181.094 234.228C173.769 240.523 172.934 251.581 179.229 258.906C185.524 266.231 196.581 267.067 203.906 260.772L230 238.348V252.5H315V238.348L341.094 260.772C348.419 267.067 359.477 266.231 365.772 258.906C372.067 251.581 371.231 240.523 363.906 234.228L306.926 185.26ZM60 105C48.9543 105 40 113.954 40 125V233C40 244.046 48.9543 253 60 253H120C131.046 253 140 244.046 140 233V125C140 113.954 131.046 105 120 105H60ZM120 117.5C124.142 117.5 127.5 120.858 127.5 125V233C127.5 237.142 124.142 240.5 120 240.5H60C55.8579 240.5 52.5 237.142 52.5 233V217.25H85V207.25H52.5V184H85V174H52.5V150.75H85V140.75H52.5V125C52.5 120.858 55.8579 117.5 60 117.5H120ZM272.5 92.5C251.789 92.5 235 109.289 235 130C235 150.711 251.789 167.5 272.5 167.5C293.211 167.5 310 150.711 310 130C310 109.289 293.211 92.5 272.5 92.5ZM90 30C81.031 30 73.75 37.281 73.75 46.25C73.75 55.219 77.5 56.981 77.5 62.5C77.5 68.019 73.019 72.5 67.5 72.5H55C48.101 72.5 42.5 78.101 42.5 85C42.5 91.899 48.101 97.5 55 97.5H125C131.899 97.5 137.5 91.899 137.5 85C137.5 78.101 131.899 72.5 125 72.5H112.5C106.981 72.5 102.5 68.019 102.5 62.5C102.5 56.981 106.25 55.219 106.25 46.25C106.25 37.281 98.969 30 90 30Z" fill="black"/>
</g>
<defs>
<clipPath id="clip0_50_183">
<rect width="400" height="400" fill="white"/>
</clipPath>
</defs>
</svg>
