<svg width="400" height="400" viewBox="0 0 400 400" fill="none" xmlns="http://www.w3.org/2000/svg">
<g clip-path="url(#clip0_50_183)">
<path d="M360 0H40C17.9086 0 0 17.9086 0 40V360C0 382.091 17.9086 400 40 400H360C382.091 400 400 382.091 400 360V40C400 17.9086 382.091 0 360 0Z" fill="white"/>
<path d="M112.5 72.5H125C131.899 72.5 137.5 78.101 137.5 85C137.5 91.899 131.899 97.5 125 97.5H55C48.101 97.5 42.5 91.899 42.5 85C42.5 78.101 48.101 72.5 55 72.5H67.5C73.019 72.5 77.5 68.019 77.5 62.5C77.5 56.981 73.75 55.219 73.75 46.25C73.75 37.281 81.031 30 90 30C98.969 30 106.25 37.281 106.25 46.25C106.25 55.219 102.5 56.981 102.5 62.5C102.5 68.019 106.981 72.5 112.5 72.5Z" fill="#333F48"/>
<path d="M120 111.25H60C52.4061 111.25 46.25 117.406 46.25 125V233C46.25 240.594 52.4061 246.75 60 246.75H120C127.594 246.75 133.75 240.594 133.75 233V125C133.75 117.406 127.594 111.25 120 111.25Z" stroke="#333F48" stroke-width="12.5" stroke-linejoin="round"/>
<path d="M50 145.75H85M50 179H85M50 212.25H85" stroke="#333F48" stroke-width="10" stroke-linejoin="round"/>
<path d="M272.5 167.5C293.211 167.5 310 150.711 310 130C310 109.289 293.211 92.5 272.5 92.5C251.789 92.5 235 109.289 235 130C235 150.711 251.789 167.5 272.5 167.5Z" fill="#333F48"/>
<path d="M230 238.348L203.906 260.772C196.581 267.067 185.523 266.231 179.228 258.906C172.933 251.581 173.769 240.523 181.094 234.228L238.074 185.26C257.872 168.247 287.128 168.247 306.926 185.26L363.906 234.228C371.231 240.523 372.067 251.581 365.772 258.906C359.477 266.231 348.419 267.067 341.094 260.772L315 238.348V252.5H230V238.348ZM347.348 325.633L312.74 360.24C306.399 366.582 296.101 366.582 289.76 360.24C283.418 353.899 283.418 343.601 289.76 337.26L310.225 316.794L286.716 293.284L315 265L347.348 297.348C355.154 305.154 355.154 317.827 347.348 325.633ZM197.652 325.633C189.846 317.827 189.846 305.154 197.652 297.348L230 265L258.284 293.284L234.775 316.794L255.24 337.26C261.582 343.601 261.582 353.899 255.24 360.24C248.899 366.582 238.601 366.582 232.26 360.24L197.652 325.633Z" fill="#333F48"/>
</g>
<defs>
<clipPath id="clip0_50_183">
<rect width="400" height="400" fill="white"/>
</clipPath>
</defs>
</svg>
