<svg width="400" height="400" viewBox="0 0 400 400" fill="none" xmlns="http://www.w3.org/2000/svg">
<g clip-path="url(#clip0_50_234)">
<path d="M360 0C382.091 0 400 17.9086 400 40V360C400 382.091 382.091 400 360 400H40C17.9086 400 0 382.091 0 360V40C0 17.9086 17.9086 0 40 0H360ZM64 86C58.696 86 53.6094 88.1074 49.8584 91.8584C46.1074 95.6094 44 100.696 44 106V215.96C44 221.479 48.481 225.96 54 225.96C59.519 225.96 64 221.479 64 215.96V124C64 121.792 65.792 120 68 120C70.208 120 72 121.792 72 124V356C72 363.727 78.273 370 86 370C93.727 370 100 363.727 100 356V220C100 217.792 101.792 216 104 216C106.208 216 108 217.792 108 220V356C108 363.727 114.273 370 122 370C129.727 370 136 363.727 136 356V124C136 121.792 137.792 120 140 120C142.208 120 144 121.792 144 124V215.96C144 221.479 148.481 225.96 154 225.96C159.519 225.96 164 221.479 164 215.96V106C164 100.696 161.893 95.6094 158.142 91.8584C154.391 88.1074 149.304 86 144 86H64ZM200 30C196.686 30 194 32.6863 194 36V364C194 367.314 196.686 370 200 370C203.314 370 206 367.314 206 364V36C206 32.6863 203.314 30 200 30ZM272 86C254.327 86 240 100.327 240 118V159.496L223.034 210.864C221.304 216.105 224.153 221.765 229.394 223.496C234.634 225.226 240.295 222.377 242.025 217.136L258.991 165.768C259.659 163.744 260 161.627 260 159.496V124C260 121.792 261.792 120 264 120C266.208 120 268 121.792 268 124V159.496C268 162.479 267.523 165.444 266.587 168.277L232 273H264V357C264 364.175 269.825 370 277 370C284.175 370 290 364.175 290 357V273H298V357C298 364.175 303.825 370 311 370C318.175 370 324 364.175 324 357V273H356L321.413 168.277C320.477 165.444 320 162.479 320 159.496V124C320 121.792 321.792 120 324 120C326.208 120 328 121.792 328 124V159.496C328 161.627 328.341 163.744 329.009 165.768L345.975 217.136C347.705 222.377 353.366 225.226 358.606 223.496C363.847 221.765 366.696 216.105 364.966 210.864L348 159.496V118C348 100.327 333.673 86 316 86H272ZM104 30C90.7452 30 80 40.7452 80 54C80 67.2548 90.7452 78 104 78C117.255 78 128 67.2548 128 54C128 40.7452 117.255 30 104 30ZM294 30C280.745 30 270 40.7452 270 54C270 67.2548 280.745 78 294 78C307.255 78 318 67.2548 318 54C318 40.7452 307.255 30 294 30Z" fill="black"/>
</g>
<defs>
<clipPath id="clip0_50_234">
<rect width="400" height="400" fill="white"/>
</clipPath>
</defs>
</svg>
