<svg width="400" height="400" viewBox="0 0 400 400" fill="none" xmlns="http://www.w3.org/2000/svg">
<g clip-path="url(#clip0_50_234)">
<path d="M360 0H40C17.9086 0 0 17.9086 0 40V360C0 382.091 17.9086 400 40 400H360C382.091 400 400 382.091 400 360V40C400 17.9086 382.091 0 360 0Z" fill="white"/>
<path d="M200 36V364" stroke="#333F48" stroke-width="12" stroke-linecap="round"/>
<path d="M104 78C117.255 78 128 67.2548 128 54C128 40.7452 117.255 30 104 30C90.7452 30 80 40.7452 80 54C80 67.2548 90.7452 78 104 78Z" fill="#333F48"/>
<path d="M64 124V215.96C64 221.479 59.519 225.96 54 225.96C48.481 225.96 44 221.479 44 215.96V106C44 100.696 46.107 95.609 49.858 91.858C53.609 88.107 58.696 86 64 86H144C149.304 86 154.391 88.107 158.142 91.858C161.893 95.609 164 100.696 164 106V215.96C164 221.479 159.519 225.96 154 225.96C148.481 225.96 144 221.479 144 215.96V124C144 121.792 142.208 120 140 120C137.792 120 136 121.792 136 124V356C136 363.727 129.727 370 122 370C114.273 370 108 363.727 108 356V220C108 217.792 106.208 216 104 216C101.792 216 100 217.792 100 220V356C100 363.727 93.727 370 86 370C78.273 370 72 363.727 72 356V124C72 121.792 70.208 120 68 120C65.792 120 64 121.792 64 124Z" fill="#333F48"/>
<path d="M294 78C307.255 78 318 67.2548 318 54C318 40.7452 307.255 30 294 30C280.745 30 270 40.7452 270 54C270 67.2548 280.745 78 294 78Z" fill="#333F48"/>
<path d="M264 273H232L266.587 168.277C267.523 165.444 268 162.479 268 159.496V124C268 121.792 266.208 120 264 120C261.792 120 260 121.792 260 124V159.496C260 161.627 259.659 163.744 258.991 165.768L242.025 217.136C240.295 222.377 234.634 225.226 229.394 223.496C224.153 221.765 221.304 216.105 223.034 210.864L240 159.496V118C240 100.327 254.327 86 272 86H316C333.673 86 348 100.327 348 118V159.496L364.966 210.864C366.696 216.105 363.847 221.765 358.606 223.496C353.366 225.226 347.705 222.377 345.975 217.136L329.009 165.768C328.341 163.744 328 161.627 328 159.496V124C328 121.792 326.208 120 324 120C321.792 120 320 121.792 320 124V159.496C320 162.479 320.477 165.444 321.413 168.277L356 273H324V357C324 364.175 318.175 370 311 370C303.825 370 298 364.175 298 357V273H290V357C290 364.175 284.175 370 277 370C269.825 370 264 364.175 264 357V273Z" fill="#333F48"/>
</g>
<defs>
<clipPath id="clip0_50_234">
<rect width="400" height="400" fill="white"/>
</clipPath>
</defs>
</svg>
