<svg width="400" height="400" viewBox="0 0 400 400" fill="none" xmlns="http://www.w3.org/2000/svg">
<g clip-path="url(#clip0_50_192)">
<path d="M360 0C382.091 0 400 17.9086 400 40V360C400 382.091 382.091 400 360 400H40C17.9086 400 0 382.091 0 360V40C0 17.9086 17.9086 0 40 0H360ZM305 202.5C303.011 202.5 301.103 203.29 299.697 204.697C298.29 206.103 297.5 208.011 297.5 210V231C297.5 231 266.03 231 251.25 231C249.261 231 247.353 231.79 245.947 233.197C244.54 234.603 243.75 236.511 243.75 238.5V259.5C243.75 259.5 212.28 259.5 197.5 259.5C195.511 259.5 193.603 260.29 192.197 261.697C190.79 263.103 190 265.011 190 267V288C190 288 158.53 288 143.75 288C141.761 288 139.853 288.79 138.447 290.197C137.04 291.603 136.25 293.511 136.25 295.5V316.5C136.25 316.5 104.78 316.5 90 316.5C88.011 316.5 86.1033 317.29 84.6973 318.697C83.2903 320.103 82.5 322.011 82.5 324V345H30V365H95C96.989 365 98.8967 364.21 100.303 362.803C101.71 361.397 102.5 359.489 102.5 357.5V336.5H148.75C150.739 336.5 152.647 335.71 154.053 334.303C155.46 332.897 156.25 330.989 156.25 329V308H202.5C204.489 308 206.397 307.21 207.803 305.803C209.21 304.397 210 302.489 210 300.5V279.5H256.25C258.239 279.5 260.147 278.71 261.553 277.303C262.96 275.897 263.75 273.989 263.75 272V251H310C311.989 251 313.897 250.21 315.303 248.803C316.71 247.397 317.5 245.489 317.5 243.5V222.5H370V202.5H305ZM130 128C119.652 128 111.25 136.402 111.25 146.75V153.933L86.4316 188.092C83.9987 191.44 84.7428 196.135 88.0918 198.568C91.4398 201.001 96.1354 200.257 98.5684 196.908L111.25 179.453V301.25H111.271C111.594 306.133 115.661 310 120.625 310C125.589 310 129.657 306.133 129.979 301.25H130V252.976L156.99 272.585C161.176 275.626 167.043 274.697 170.085 270.51C173.126 266.324 172.197 260.457 168.01 257.415L131.702 231.036C130.816 230.392 130.222 229.423 130.051 228.341C130.017 228.13 130.001 227.918 130 227.707V227.683C130.003 226.821 130.275 225.973 130.789 225.268L145.169 205.475C147.496 202.271 148.75 198.413 148.75 194.454V146.75C148.75 136.402 140.348 128 130 128ZM231.25 70C220.902 70 212.5 78.402 212.5 88.75V147.5H212.501C212.504 150.398 213.846 153.255 216.365 155.085C216.378 155.094 216.391 155.104 216.404 155.113L219.375 157.272V243.125C219.375 248.299 223.576 252.5 228.75 252.5C233.924 252.5 238.125 248.299 238.125 243.125V161.271L261.875 178.527V213.125C261.875 218.299 266.076 222.5 271.25 222.5C276.424 222.5 280.625 218.299 280.625 213.125V178.527C280.625 172.526 277.752 166.886 272.896 163.358L250 146.723V122.24L265.592 133.568C268.94 136.001 273.635 135.257 276.068 131.908C278.501 128.56 277.757 123.865 274.408 121.432L250 103.699V88.75C250 78.402 241.598 70 231.25 70ZM128.125 88C118.46 88 110.625 95.835 110.625 105.5C110.625 115.165 118.46 123 128.125 123C137.79 123 145.625 115.165 145.625 105.5C145.625 95.835 137.79 88 128.125 88ZM229.5 30C219.835 30 212 37.835 212 47.5C212 57.165 219.835 65 229.5 65C239.165 65 247 57.165 247 47.5C247 37.835 239.165 30 229.5 30Z" fill="black"/>
</g>
<defs>
<clipPath id="clip0_50_192">
<rect width="400" height="400" fill="white"/>
</clipPath>
</defs>
</svg>
