<svg width="400" height="400" viewBox="0 0 400 400" fill="none" xmlns="http://www.w3.org/2000/svg">
<g clip-path="url(#clip0_50_192)">
<path d="M360 0H40C17.9086 0 0 17.9086 0 40V360C0 382.091 17.9086 400 40 400H360C382.091 400 400 382.091 400 360V40C400 17.9086 382.091 0 360 0Z" fill="white"/>
<path d="M128.125 123C137.79 123 145.625 115.165 145.625 105.5C145.625 95.835 137.79 88 128.125 88C118.46 88 110.625 95.835 110.625 105.5C110.625 115.165 118.46 123 128.125 123Z" fill="#333F48"/>
<path d="M111.25 179.453L98.5681 196.908C96.1351 200.257 91.4401 201.001 88.0921 198.568C84.7431 196.135 83.9991 191.44 86.4321 188.092L111.25 153.933V146.75C111.25 136.402 119.652 128 130 128C140.348 128 148.75 136.402 148.75 146.75V194.454C148.75 198.413 147.496 202.271 145.169 205.475L130.789 225.268C130.275 225.974 130.003 226.821 130 227.683V227.707C130.001 227.918 130.017 228.13 130.051 228.341C130.222 229.423 130.816 230.392 131.702 231.036L168.01 257.415C172.197 260.457 173.126 266.324 170.085 270.51C167.043 274.697 161.176 275.626 156.99 272.585L130 252.976V301.25H129.979C129.657 306.133 125.589 310 120.625 310C115.661 310 111.593 306.133 111.271 301.25H111.25V179.453Z" fill="#333F48"/>
<path d="M229.5 65C239.165 65 247 57.165 247 47.5C247 37.835 239.165 30 229.5 30C219.835 30 212 37.835 212 47.5C212 57.165 219.835 65 229.5 65Z" fill="#333F48"/>
<path d="M212.5 88.75C212.5 78.402 220.902 70 231.25 70C241.598 70 250 78.402 250 88.75V103.699L274.408 121.432C277.757 123.865 278.501 128.56 276.068 131.908C273.635 135.257 268.94 136.001 265.592 133.568L250 122.24V146.723L272.896 163.358C277.752 166.886 280.625 172.525 280.625 178.527V213.125C280.625 218.299 276.424 222.5 271.25 222.5C266.076 222.5 261.875 218.299 261.875 213.125V178.527L238.125 161.271V243.125C238.125 248.299 233.924 252.5 228.75 252.5C223.576 252.5 219.375 248.299 219.375 243.125V157.272L216.404 155.113C216.391 155.104 216.378 155.094 216.365 155.085C213.846 153.255 212.504 150.398 212.501 147.5H212.5V88.75Z" fill="#333F48"/>
<path d="M30 365V345H82.5V324C82.5 322.011 83.29 320.103 84.697 318.697C86.103 317.29 88.011 316.5 90 316.5C104.78 316.5 136.25 316.5 136.25 316.5V295.5C136.25 293.511 137.04 291.603 138.447 290.197C139.853 288.79 141.761 288 143.75 288C158.53 288 190 288 190 288C190 288 190 275.444 190 267C190 265.011 190.79 263.103 192.197 261.697C193.603 260.29 195.511 259.5 197.5 259.5C212.28 259.5 243.75 259.5 243.75 259.5C243.75 259.5 243.75 246.944 243.75 238.5C243.75 236.511 244.54 234.603 245.947 233.197C247.353 231.79 249.261 231 251.25 231C266.03 231 297.5 231 297.5 231V210C297.5 208.011 298.29 206.103 299.697 204.697C301.103 203.29 303.011 202.5 305 202.5H370V222.5H317.5V243.5C317.5 245.489 316.71 247.397 315.303 248.803C313.897 250.21 311.989 251 310 251C295.22 251 263.75 251 263.75 251C263.75 251 263.75 263.556 263.75 272C263.75 273.989 262.96 275.897 261.553 277.303C260.147 278.71 258.239 279.5 256.25 279.5C241.47 279.5 210 279.5 210 279.5C210 279.5 210 292.056 210 300.5C210 302.489 209.21 304.397 207.803 305.803C206.397 307.21 204.489 308 202.5 308C187.72 308 156.25 308 156.25 308V329C156.25 330.989 155.46 332.897 154.053 334.303C152.647 335.71 150.739 336.5 148.75 336.5C133.97 336.5 102.5 336.5 102.5 336.5V357.5C102.5 359.489 101.71 361.397 100.303 362.803C98.897 364.21 96.989 365 95 365C76.467 365 30 365 30 365Z" fill="#333F48"/>
</g>
<defs>
<clipPath id="clip0_50_192">
<rect width="400" height="400" fill="white"/>
</clipPath>
</defs>
</svg>
