<svg width="400" height="400" viewBox="0 0 400 400" fill="none" xmlns="http://www.w3.org/2000/svg">
<g clip-path="url(#clip0_50_160)">
<path d="M360 0H40C17.9086 0 0 17.9086 0 40V360C0 382.091 17.9086 400 40 400H360C382.091 400 400 382.091 400 360V40C400 17.9086 382.091 0 360 0Z" fill="white"/>
<path d="M243.527 272.23L240.974 285.362C239.395 293.489 231.514 298.804 223.388 297.224C219.427 296.454 216.133 294.187 213.981 291.125C210.375 297.49 202.984 301.151 195.411 299.678C185.93 297.836 179.729 288.642 181.572 279.161L185.125 260.878L243.527 272.23Z" fill="#333F48"/>
<path d="M302.369 115.579L209.114 97.4519L177.631 259.42L270.885 277.547L302.369 115.579Z" stroke="#333F48" stroke-width="10" stroke-linejoin="round"/>
<path d="M224.522 136.102C227.911 136.761 231.191 134.548 231.85 131.159C232.509 127.771 230.296 124.49 226.907 123.832C223.519 123.173 220.238 125.386 219.58 128.774C218.921 132.163 221.134 135.443 224.522 136.102Z" fill="#333F48"/>
<path d="M249.063 140.872C252.451 141.531 255.732 139.318 256.391 135.93C257.049 132.541 254.837 129.261 251.448 128.602C248.06 127.943 244.779 130.156 244.12 133.545C243.462 136.933 245.675 140.214 249.063 140.872Z" fill="#333F48"/>
<path d="M273.604 145.643C276.992 146.301 280.273 144.088 280.931 140.7C281.59 137.312 279.377 134.031 275.989 133.372C272.6 132.714 269.32 134.926 268.661 138.315C268.002 141.703 270.215 144.984 273.604 145.643Z" fill="#333F48"/>
<mask id="mask0_50_160" style="mask-type:luminance" maskUnits="userSpaceOnUse" x="0" y="0" width="400" height="400">
<path d="M360 0H40C17.9086 0 0 17.9086 0 40V360C0 382.091 17.9086 400 40 400H360C382.091 400 400 382.091 400 360V40C400 17.9086 382.091 0 360 0Z" fill="white"/>
<path d="M302.369 115.579L209.114 97.4519L177.631 259.42L270.885 277.547L302.369 115.579Z" fill="black"/>
</mask>
<g mask="url(#mask0_50_160)">
<path d="M365 96.7407L285.326 45L195.46 183.381L275.134 235.121L365 96.7407Z" stroke="#333F48" stroke-width="10" stroke-linejoin="round"/>
<path d="M285.134 86.6078C288.029 88.4878 291.899 87.665 293.779 84.7701C295.659 81.8752 294.837 78.0044 291.942 76.1245C289.047 74.2445 285.176 75.0672 283.296 77.9621C281.416 80.8571 282.239 84.7279 285.134 86.6078Z" fill="#333F48"/>
<path d="M306.1 100.224C308.995 102.104 312.866 101.281 314.746 98.3861C316.626 95.4912 315.803 91.6204 312.908 89.7404C310.014 87.8604 306.143 88.6832 304.263 91.5781C302.383 94.473 303.206 98.3438 306.1 100.224Z" fill="#333F48"/>
<path d="M327.067 113.84C329.962 115.72 333.833 114.897 335.713 112.002C337.593 109.107 336.77 105.236 333.875 103.356C330.98 101.476 327.11 102.299 325.23 105.194C323.35 108.089 324.172 111.96 327.067 113.84Z" fill="#333F48"/>
</g>
<path d="M188.376 204.145L199.917 197.878C211.437 191.624 225.867 195.898 232.122 207.417C238.376 218.937 234.102 233.367 222.583 239.622L142.217 283.257C133.911 287.767 127.053 294.539 122.438 302.789C104.74 334.459 73.48 358.215 35 365V222.5L95.821 154.952C98.045 152.481 101.352 151.278 104.644 151.741L196.064 164.589L188.376 204.145ZM160 219.552C160 219.552 139.187 213.783 130.093 218.721C120.999 223.659 116.822 233.575 120.773 240.85L160 219.552Z" fill="#333F48"/>
</g>
<defs>
<clipPath id="clip0_50_160">
<rect width="400" height="400" fill="white"/>
</clipPath>
</defs>
</svg>
