<svg width="40" height="40" viewBox="0 0 40 40" fill="none" xmlns="http://www.w3.org/2000/svg">
<rect width="40" height="40" rx="5" fill="black"/>
<path d="M11.7879 18.5127L12.9648 10.6665C13.0156 10.3276 13.3068 10.0769 13.6494 10.0769H16.9763C17.3587 10.0769 17.6686 10.3869 17.6686 10.7692V18.6154C17.6686 18.9977 17.3587 19.3077 16.9763 19.3077H12.4725C12.0493 19.3077 11.7251 18.9313 11.7879 18.5127Z" fill="white"/>
<path d="M28.6263 18.5127L27.4494 10.6665C27.3985 10.3276 27.1074 10.0769 26.7647 10.0769H23.4379C23.0555 10.0769 22.7456 10.3869 22.7456 10.7692V18.6154C22.7456 18.9977 23.0555 19.3077 23.4379 19.3077H27.9417C28.3649 19.3077 28.6891 18.9313 28.6263 18.5127Z" fill="white"/>
<path fill-rule="evenodd" clip-rule="evenodd" d="M8.78311 29.8441C8.05954 28.6335 7.0769 26.1155 7.0769 22.5385C7.0769 18.97 7.56586 13.5761 8.40681 9.89062C8.69373 8.63321 9.39398 7.49626 10.5416 6.90782C12.3556 5.97777 15.4821 5 20 5C24.5179 5 27.6444 5.97777 29.4583 6.90782C30.606 7.49626 31.3062 8.63321 31.5932 9.89062C32.4341 13.5761 32.9231 18.97 32.9231 22.5385C32.9231 26.1155 31.9404 28.6335 31.2169 29.8441C31.0038 30.2006 30.6053 30.3846 30.19 30.3846H9.80997C9.39468 30.3846 8.99618 30.2006 8.78311 29.8441ZM10.1338 10.7555C9.54398 14.7282 9.28618 17.5197 9.15383 21.6154H30.8461C30.7138 17.5197 30.456 14.7282 29.8662 10.7555C29.643 9.0428 28.1759 7.76923 26.4487 7.76923H13.5513C11.824 7.76923 10.3716 9.15385 10.1338 10.7555ZM14.1154 26.9231C14.9438 26.9231 15.6154 26.2515 15.6154 25.4231C15.6154 24.5947 14.9438 23.9231 14.1154 23.9231C13.2869 23.9231 12.6154 24.5947 12.6154 25.4231C12.6154 26.2515 13.2869 26.9231 14.1154 26.9231ZM26.3225 26.9231C27.1509 26.9231 27.8225 26.2515 27.8225 25.4231C27.8225 24.5947 27.1509 23.9231 26.3225 23.9231C25.494 23.9231 24.8225 24.5947 24.8225 25.4231C24.8225 26.2515 25.494 26.9231 26.3225 26.9231Z" fill="white"/>
<path d="M11.1618 31.3865L8.33487 34.6173C8.20431 34.7665 8.31028 35 8.50854 35H11.7804C11.8678 35 11.9478 34.9506 11.9868 34.8724L13.6022 31.6417C13.6789 31.4882 13.5674 31.3077 13.3958 31.3077H11.3355C11.2689 31.3077 11.2056 31.3364 11.1618 31.3865Z" fill="white"/>
<path d="M28.3766 31.3865L31.2036 34.6173C31.3341 34.7665 31.2282 35 31.0299 35H27.758C27.6706 35 27.5907 34.9506 27.5516 34.8724L25.9362 31.6417C25.8595 31.4882 25.9711 31.3077 26.1426 31.3077H28.203C28.2695 31.3077 28.3328 31.3364 28.3766 31.3865Z" fill="white"/>
</svg>
