<svg width="400" height="400" viewBox="0 0 400 400" fill="none" xmlns="http://www.w3.org/2000/svg">
<g clip-path="url(#clip0_50_146)">
<path d="M360 0H40C17.9086 0 0 17.9086 0 40V360C0 382.091 17.9086 400 40 400H360C382.091 400 400 382.091 400 360V40C400 17.9086 382.091 0 360 0Z" fill="white"/>
<path d="M90 140C117.614 140 140 117.614 140 90C140 62.3858 117.614 40 90 40C62.3858 40 40 62.3858 40 90C40 117.614 62.3858 140 90 140Z" stroke="#333F48" stroke-width="10" stroke-linejoin="round"/>
<path d="M92.5 51.25V95.877L65 80" stroke="#333F48" stroke-width="10" stroke-linejoin="round"/>
<path d="M202.5 132.5C216.997 132.5 228.75 120.747 228.75 106.25C228.75 91.7525 216.997 80 202.5 80C188.003 80 176.25 91.7525 176.25 106.25C176.25 120.747 188.003 132.5 202.5 132.5Z" fill="#333F48"/>
<path d="M122.803 242.5H175V222.743L119.734 240.699C113.829 242.618 107.477 239.382 105.559 233.476C103.64 227.571 106.876 221.219 112.782 219.301L159.909 203.988C161.313 203.532 162.444 202.478 162.998 201.11L175 171.48V167.5C175 152.322 187.322 140 202.5 140C217.678 140 230 152.322 230 167.5V250C230 265.178 217.678 277.5 202.5 277.5H137.5V341.25C137.5 348.839 131.339 355 123.75 355C116.161 355 110 348.839 110 341.25V286.945L78.4729 318.473C73.1069 323.839 64.3929 323.839 59.0269 318.473C53.6609 313.107 53.6609 304.393 59.0269 299.027L110.429 247.626C113.711 244.344 118.162 242.5 122.803 242.5Z" fill="#333F48"/>
<path d="M273.75 132.5C288.247 132.5 300 120.747 300 106.25C300 91.7525 288.247 80 273.75 80C259.253 80 247.5 91.7525 247.5 106.25C247.5 120.747 259.253 132.5 273.75 132.5Z" fill="#333F48"/>
<path d="M272.5 277.5C257.322 277.5 245 265.178 245 250V167.5C245 152.322 257.322 140 272.5 140C287.678 140 300 152.322 300 167.5V242.5H347.5C357.159 242.5 365 250.341 365 260V341.25C365 348.839 358.839 355 351.25 355C343.661 355 337.5 348.839 337.5 341.25V277.5H272.5Z" fill="#333F48"/>
</g>
<defs>
<clipPath id="clip0_50_146">
<rect width="400" height="400" fill="white"/>
</clipPath>
</defs>
</svg>
