<svg width="400" height="400" viewBox="0 0 400 400" fill="none" xmlns="http://www.w3.org/2000/svg">
<g clip-path="url(#clip0_50_146)">
<path d="M360 0C382.091 0 400 17.9086 400 40V360C400 382.091 382.091 400 360 400H40C17.9086 400 0 382.091 0 360V40C0 17.9086 17.9086 0 40 0H360ZM202.5 140C187.322 140 175 152.322 175 167.5V171.48L162.998 201.11C162.444 202.478 161.313 203.532 159.909 203.988L112.782 219.301C106.876 221.219 103.64 227.571 105.559 233.476C107.477 239.382 113.829 242.618 119.734 240.699L175 222.743V242.5H122.803C118.162 242.5 113.711 244.344 110.429 247.626L59.0273 299.027C53.6613 304.393 53.6613 313.107 59.0273 318.473C64.3933 323.839 73.1067 323.839 78.4727 318.473L110 286.945V341.25C110 348.839 116.161 355 123.75 355C131.339 355 137.5 348.839 137.5 341.25V277.5H202.5C217.678 277.5 230 265.178 230 250V167.5C230 152.322 217.678 140 202.5 140ZM272.5 140C257.322 140 245 152.322 245 167.5V250C245 265.178 257.322 277.5 272.5 277.5H337.5V341.25C337.5 348.839 343.661 355 351.25 355C358.839 355 365 348.839 365 341.25V260C365 250.341 357.159 242.5 347.5 242.5H300V167.5C300 152.322 287.678 140 272.5 140ZM90 35C59.6243 35 35 59.6243 35 90C35 120.376 59.6243 145 90 145C120.376 145 145 120.376 145 90C145 59.6243 120.376 35 90 35ZM90 45C114.853 45 135 65.1472 135 90C135 114.853 114.853 135 90 135C65.1472 135 45 114.853 45 90C45 65.1472 65.1472 45 90 45ZM202.5 80C188.003 80 176.25 91.7525 176.25 106.25C176.25 120.747 188.003 132.5 202.5 132.5C216.997 132.5 228.75 120.747 228.75 106.25C228.75 91.7525 216.997 80 202.5 80ZM273.75 80C259.253 80 247.5 91.7525 247.5 106.25C247.5 120.747 259.253 132.5 273.75 132.5C288.247 132.5 300 120.747 300 106.25C300 91.7525 288.247 80 273.75 80ZM87.5 87.2168L67.5 75.6699L62.5 84.3301L90 100.207C91.547 101.1 93.453 101.1 95 100.207C96.547 99.3139 97.5 97.6633 97.5 95.877V51.25H87.5V87.2168Z" fill="black"/>
</g>
<defs>
<clipPath id="clip0_50_146">
<rect width="400" height="400" fill="white"/>
</clipPath>
</defs>
</svg>
