<svg width="73" height="29" viewBox="0 0 73 29" fill="none" xmlns="http://www.w3.org/2000/svg">
<path d="M20.7981 14.6979C20.7981 16.9349 20.6181 18.9276 20.2581 20.6761C19.9239 22.4245 19.3839 23.9159 18.6383 25.1501C17.9183 26.3586 16.9541 27.2842 15.7456 27.927C14.5628 28.5698 13.1358 28.8912 11.4644 28.8912C9.89598 28.8912 8.52035 28.5698 7.33758 27.927C6.18051 27.2842 5.21629 26.3586 4.44491 25.1501C3.69925 23.9159 3.13357 22.4245 2.74788 20.6761C2.38791 18.9276 2.20792 16.9349 2.20792 14.6979C2.20792 11.7152 2.50361 9.1697 3.095 7.06126C3.7121 4.95283 4.70204 3.3458 6.0648 2.24016C7.42757 1.1088 9.22745 0.543128 11.4644 0.543128C13.5729 0.543128 15.3085 1.1088 16.6712 2.24016C18.0597 3.3458 19.0882 4.95283 19.7567 7.06126C20.451 9.1697 20.7981 11.7152 20.7981 14.6979ZM6.33479 14.6979C6.33479 18.2977 6.70762 20.9975 7.45328 22.7974C8.22466 24.5715 9.56171 25.4586 11.4644 25.4586C13.3415 25.4586 14.6657 24.5715 15.437 22.7974C16.2341 21.0232 16.6327 18.3234 16.6327 14.6979C16.6327 12.3066 16.4655 10.3268 16.1313 8.7583C15.797 7.16412 15.2442 5.96848 14.4728 5.17139C13.7272 4.3743 12.7244 3.97576 11.4644 3.97576C10.2045 3.97576 9.18888 4.3743 8.4175 5.17139C7.67184 5.96848 7.13188 7.16412 6.79761 8.7583C6.48906 10.3268 6.33479 12.3066 6.33479 14.6979Z" fill="#808080"/>
<path d="M39.2851 7.08261V6.54889H35.4914V12.2034H39.7178V8.09235H40.9295V13.819H39.7178V13.2997H28.8703V8.09235H30.0965V12.2034H34.2364V6.54889H29.2598V1.37036H30.4859V5.4526H34.2364V0.043276H35.4914V5.4526H39.2851V1.37036H40.5112V7.08261H39.2851ZM46.5119 0.67797L47.464 1.41282e-06C48.541 0.663545 49.7239 2.36568 51.0125 5.1064C52.8108 9.03958 54.763 11.4389 56.869 12.3044L55.8593 13.5738C53.7532 12.3236 51.8059 9.6887 50.0172 5.66897C49.8729 5.34682 49.7311 5.03909 49.5917 4.74578C48.4761 8.56837 46.4014 11.5399 43.3673 13.6603C43.1077 13.2757 42.8144 12.9151 42.4874 12.5785C45.608 10.6119 47.7092 7.50093 48.7911 3.24559C48.0362 1.98582 47.2765 1.12995 46.5119 0.67797ZM58.7009 1.28381H70.1543V13.4295H68.9137V12.0303H59.9415V13.4295H58.7009V1.28381ZM68.9137 10.9485V2.36568H59.9415V10.9485H68.9137Z" fill="black"/>
<path d="M28.3449 23.756V17.347H32.3708V18.1052H29.1212V20.1723H32.2625V20.9125H29.1212V22.9977H32.443V23.756H28.3449ZM33.6755 23.756V18.9718H34.3706L34.3977 20.1904L34.3074 20.1091C34.3676 19.8263 34.4729 19.5946 34.6233 19.4141C34.7738 19.2275 34.9543 19.0891 35.1649 18.9989C35.3816 18.9086 35.6133 18.8634 35.86 18.8634C36.2271 18.8634 36.528 18.9447 36.7627 19.1072C37.0034 19.2697 37.1809 19.4893 37.2952 19.7661C37.4156 20.0369 37.4758 20.3408 37.4758 20.6778V23.756H36.7175V20.8945C36.7175 20.5996 36.6814 20.3529 36.6092 20.1543C36.543 19.9497 36.4347 19.7962 36.2842 19.6939C36.1338 19.5856 35.9382 19.5314 35.6975 19.5314C35.3304 19.5314 35.0265 19.6488 34.7858 19.8835C34.5511 20.1122 34.4338 20.4491 34.4338 20.8945V23.756H33.6755ZM40.3103 23.756C39.877 23.756 39.5551 23.6567 39.3445 23.4581C39.1399 23.2595 39.0376 22.9496 39.0376 22.5283V17.8525H39.7958V22.5103C39.7958 22.7269 39.8439 22.8773 39.9402 22.9616C40.0365 23.0458 40.1839 23.088 40.3825 23.088H41.0686V23.756H40.3103ZM38.3335 19.6398V18.9718H41.0686V19.6398H38.3335ZM42.1381 23.756V18.9718H42.8061L42.8422 20.1814L42.77 20.1543C42.8302 19.7451 42.9595 19.4472 43.1581 19.2606C43.3627 19.0681 43.6335 18.9718 43.9705 18.9718H44.4399V19.6939H43.9796C43.7388 19.6939 43.5372 19.739 43.3748 19.8293C43.2183 19.9136 43.0979 20.0429 43.0137 20.2175C42.9355 20.386 42.8963 20.6026 42.8963 20.8674V23.756H42.1381ZM46.4878 23.8643C45.9943 23.8643 45.6002 23.7499 45.3053 23.5213C45.0164 23.2926 44.872 22.9736 44.872 22.5644C44.872 22.1552 44.9924 21.8333 45.2331 21.5986C45.4738 21.3639 45.8559 21.1984 46.3795 21.1021L48.0765 20.7861C48.0765 20.383 47.9802 20.0821 47.7876 19.8835C47.6011 19.6849 47.3183 19.5856 46.9391 19.5856C46.6082 19.5856 46.3464 19.6608 46.1538 19.8113C45.9612 19.9557 45.8288 20.1663 45.7566 20.4431L44.9532 20.3799C45.0435 19.9286 45.2602 19.5645 45.6032 19.2877C45.9522 19.0049 46.3975 18.8634 46.9391 18.8634C47.553 18.8634 48.0223 19.038 48.3473 19.387C48.6723 19.73 48.8348 20.2054 48.8348 20.8132V22.7901C48.8348 22.8984 48.8528 22.9766 48.8889 23.0248C48.931 23.0669 48.9972 23.088 49.0875 23.088H49.2771V23.756C49.253 23.762 49.2139 23.765 49.1597 23.765C49.1056 23.771 49.0484 23.774 48.9882 23.774C48.7716 23.774 48.594 23.7409 48.4556 23.6747C48.3232 23.6025 48.227 23.4942 48.1668 23.3497C48.1066 23.1993 48.0765 23.0037 48.0765 22.763L48.1668 22.7811C48.1246 22.9857 48.0223 23.1722 47.8599 23.3407C47.6974 23.5032 47.4958 23.6326 47.2551 23.7289C47.0144 23.8191 46.7586 23.8643 46.4878 23.8643ZM46.56 23.1963C46.879 23.1963 47.1498 23.1361 47.3724 23.0158C47.6011 22.8894 47.7756 22.7209 47.896 22.5103C48.0163 22.2936 48.0765 22.0529 48.0765 21.7881V21.4451L46.5239 21.734C46.1989 21.7941 45.9733 21.8874 45.8469 22.0138C45.7265 22.1341 45.6664 22.2936 45.6664 22.4922C45.6664 22.7149 45.7446 22.8894 45.9011 23.0158C46.0635 23.1361 46.2832 23.1963 46.56 23.1963ZM50.1335 23.756V18.9718H50.8285L50.8556 20.1904L50.7654 20.1091C50.8255 19.8263 50.9308 19.5946 51.0813 19.4141C51.2317 19.2275 51.4123 19.0891 51.6229 18.9989C51.8395 18.9086 52.0712 18.8634 52.318 18.8634C52.685 18.8634 52.9859 18.9447 53.2206 19.1072C53.4613 19.2697 53.6389 19.4893 53.7532 19.7661C53.8736 20.0369 53.9337 20.3408 53.9337 20.6778V23.756H53.1755V20.8945C53.1755 20.5996 53.1394 20.3529 53.0672 20.1543C53.001 19.9497 52.8927 19.7962 52.7422 19.6939C52.5918 19.5856 52.3962 19.5314 52.1555 19.5314C51.7884 19.5314 51.4845 19.6488 51.2438 19.8835C51.0091 20.1122 50.8917 20.4491 50.8917 20.8945V23.756H50.1335ZM57.1413 23.8643C56.696 23.8643 56.3078 23.762 55.9768 23.5574C55.6519 23.3528 55.3991 23.0639 55.2186 22.6908C55.038 22.3117 54.9478 21.8694 54.9478 21.3639C54.9478 20.8584 55.038 20.4191 55.2186 20.046C55.3991 19.6728 55.6519 19.384 55.9768 19.1794C56.3078 18.9688 56.696 18.8634 57.1413 18.8634C57.5084 18.8634 57.8333 18.9296 58.1162 19.062C58.405 19.1884 58.6397 19.375 58.8202 19.6217C59.0008 19.8684 59.1181 20.1693 59.1723 20.5244L58.3779 20.5785C58.3238 20.2596 58.1854 20.0159 57.9627 19.8474C57.74 19.6728 57.4662 19.5856 57.1413 19.5856C56.702 19.5856 56.359 19.7451 56.1122 20.064C55.8655 20.3769 55.7421 20.8102 55.7421 21.3639C55.7421 21.9175 55.8655 22.3538 56.1122 22.6727C56.359 22.9857 56.702 23.1421 57.1413 23.1421C57.4662 23.1421 57.74 23.0519 57.9627 22.8713C58.1854 22.6908 58.3238 22.42 58.3779 22.0589L59.1723 22.1131C59.1181 22.4681 59.0008 22.7781 58.8202 23.0428C58.6397 23.3016 58.405 23.5032 58.1162 23.6476C57.8333 23.7921 57.5084 23.8643 57.1413 23.8643ZM61.9808 23.8643C61.5295 23.8643 61.1383 23.762 60.8073 23.5574C60.4824 23.3528 60.2296 23.0639 60.0491 22.6908C59.8746 22.3117 59.7873 21.8694 59.7873 21.3639C59.7873 20.8584 59.8746 20.4191 60.0491 20.046C60.2296 19.6728 60.4794 19.384 60.7983 19.1794C61.1233 18.9688 61.5054 18.8634 61.9447 18.8634C62.3599 18.8634 62.727 18.9627 63.046 19.1613C63.3649 19.3539 63.6116 19.6367 63.7862 20.0098C63.9667 20.383 64.057 20.8373 64.057 21.3729V21.5986H60.5817C60.6118 22.1101 60.7472 22.4952 60.9879 22.754C61.2346 23.0127 61.5656 23.1421 61.9808 23.1421C62.2937 23.1421 62.5495 23.0699 62.7481 22.9255C62.9527 22.775 63.0941 22.5795 63.1723 22.3388L63.9848 22.4019C63.8584 22.8292 63.6177 23.1812 63.2626 23.4581C62.9136 23.7289 62.4863 23.8643 61.9808 23.8643ZM60.5817 20.9306H63.2265C63.1904 20.4672 63.055 20.1272 62.8203 19.9106C62.5916 19.6939 62.2998 19.5856 61.9447 19.5856C61.5776 19.5856 61.2737 19.6999 61.033 19.9286C60.7983 20.1513 60.6479 20.4853 60.5817 20.9306Z" fill="black"/>
</svg>
