<svg width="58" height="29" viewBox="0 0 58 29" fill="none" xmlns="http://www.w3.org/2000/svg">
<path d="M20.7981 14.6546C20.7981 16.8916 20.6181 18.8843 20.2581 20.6328C19.9239 22.3813 19.3839 23.8726 18.6383 25.1068C17.9183 26.3153 16.9541 27.2409 15.7456 27.8837C14.5628 28.5266 13.1358 28.848 11.4644 28.848C9.89598 28.848 8.52035 28.5266 7.33758 27.8837C6.18051 27.2409 5.21629 26.3153 4.44491 25.1068C3.69925 23.8726 3.13357 22.3813 2.74788 20.6328C2.38791 18.8843 2.20792 16.8916 2.20792 14.6546C2.20792 11.672 2.50361 9.12642 3.095 7.01799C3.7121 4.90956 4.70204 3.30252 6.0648 2.19688C7.42757 1.06553 9.22745 0.499854 11.4644 0.499854C13.5729 0.499854 15.3085 1.06553 16.6712 2.19688C18.0597 3.30252 19.0882 4.90956 19.7567 7.01799C20.451 9.12642 20.7981 11.672 20.7981 14.6546ZM6.33479 14.6546C6.33479 18.2544 6.70762 20.9542 7.45328 22.7541C8.22466 24.5283 9.56171 25.4153 11.4644 25.4153C13.3415 25.4153 14.6657 24.5283 15.437 22.7541C16.2341 20.9799 16.6327 18.2801 16.6327 14.6546C16.6327 12.2634 16.4655 10.2835 16.1313 8.71502C15.797 7.12084 15.2442 5.92521 14.4728 5.12812C13.7272 4.33103 12.7244 3.93248 11.4644 3.93248C10.2045 3.93248 9.18888 4.33103 8.4175 5.12812C7.67184 5.92521 7.13188 7.12084 6.79761 8.71502C6.48906 10.2835 6.33479 12.2634 6.33479 14.6546Z" fill="#808080"/>
<path d="M39.2851 7.03936V6.50564H35.4914V12.1602H39.7178V8.0491H40.9295V13.7758H39.7178V13.2565H28.8703V8.0491H30.0965V12.1602H34.2364V6.50564H29.2598V1.32712H30.4859V5.40935H34.2364V3.25805e-05H35.4914V5.40935H39.2851V1.32712H40.5112V7.03936H39.2851ZM43.9299 1.24057H55.3832V13.3863H54.1427V11.9871H45.1704V13.3863H43.9299V1.24057ZM54.1427 10.9052V2.32243H45.1704V10.9052H54.1427Z" fill="black"/>
<path d="M28.3449 23.7126V17.3036H32.3708V18.0619H29.1212V20.129H32.2625V20.8692H29.1212V22.9544H32.443V23.7126H28.3449ZM33.1044 23.7126L34.8646 21.2574L33.1946 18.9285H34.0793L35.334 20.7338L36.5526 18.9285H37.4553L35.8034 21.2754L37.5365 23.7126H36.6519L35.334 21.7809L34.007 23.7126H33.1044ZM38.233 23.7126V18.9285H38.9912V23.7126H38.233ZM38.2149 18.1792V17.2946H39.0093V18.1792H38.2149ZM41.8265 23.7126C41.3933 23.7126 41.0713 23.6134 40.8607 23.4148C40.6561 23.2162 40.5538 22.9063 40.5538 22.485V17.8091H41.312V22.467C41.312 22.6836 41.3602 22.834 41.4564 22.9183C41.5527 23.0025 41.7002 23.0447 41.8988 23.0447H42.5848V23.7126H41.8265ZM39.8497 19.5964V18.9285H42.5848V19.5964H39.8497Z" fill="black"/>
</svg>
