<svg width="400" height="400" viewBox="0 0 400 400" fill="none" xmlns="http://www.w3.org/2000/svg">
<g clip-path="url(#clip0_50_138)">
<path d="M360 0C382.091 0 400 17.9086 400 40V360C400 382.091 382.091 400 360 400H40C17.9086 400 0 382.091 0 360V40C0 17.9086 17.9086 0 40 0H360ZM40 355H360V140H305V160H320V315H80V160H95V140H40V355ZM127.5 152.5V216.5L177.5 166.5V255H222.5V166.5L272.5 216.5V152.5L200 80L127.5 152.5ZM98.2461 120L115.566 130L161.755 50L153.095 45L144.434 40L98.2461 120ZM238.246 50L284.434 130L293.095 125L301.755 120L255.566 40L238.246 50Z" fill="black"/>
</g>
<defs>
<clipPath id="clip0_50_138">
<rect width="400" height="400" fill="white"/>
</clipPath>
</defs>
</svg>
