<svg width="60" height="26" viewBox="0 0 60 26" fill="none" xmlns="http://www.w3.org/2000/svg">
<path d="M11.7707 7.34222V6.8085H7.97695V12.463H12.2034V8.35196H13.4151V14.0786H12.2034V13.5593H1.35594V8.35196H2.58205V12.463H6.72198V6.8085H1.74541V1.62998H2.97152V5.71221H6.72198V0.302889H7.97695V5.71221H11.7707V1.62998H12.9968V7.34222H11.7707ZM16.4155 1.54343H27.8688V13.6892H26.6283V12.2899H17.656V13.6892H16.4155V1.54343ZM26.6283 11.2081V2.62529H17.656V11.2081H26.6283ZM34.8505 9.04435H43.0582V14.3239H41.9475V13.4584H35.9612V14.3239H34.8505V9.04435ZM29.7296 7.0393C31.1433 4.94289 32.2059 2.62529 32.9175 0.0865161L34.0427 0.403863C33.6243 1.69729 33.1676 2.88975 32.6723 3.98123V14.3239H31.6049V6.09447C31.1625 6.8686 30.6961 7.57783 30.2057 8.22214C30.0518 7.81824 29.8931 7.42396 29.7296 7.0393ZM41.9475 10.0252H35.9612V12.4775H41.9475V10.0252ZM33.8984 2.03387H38.6081C38.3196 1.53862 38.0191 1.04817 37.7066 0.562536L38.673 0.0576664C39.0192 0.576961 39.3606 1.12511 39.6972 1.7021L39.0697 2.03387H44.0535V3.04361H33.8984V2.03387ZM34.6918 4.38512H43.2025V5.36601H34.6918V4.38512ZM34.6918 6.70753H43.2025V7.68842H34.6918V6.70753ZM46.4192 1.48573H49.9461C50.1528 0.971241 50.3235 0.475987 50.4582 -3.30051e-05L51.5833 0.302889C51.4246 0.711593 51.2587 1.10587 51.0856 1.48573H56.8339V9.3617H55.7232V8.91453H47.5299V9.3617H46.4192V1.48573ZM47.9338 9.90984H49.0301V12.0303C49.0301 12.6265 49.3474 12.9246 49.9821 12.9246H53.1845C53.9538 12.9246 54.4009 12.6602 54.526 12.1313C54.6221 11.7851 54.7183 11.261 54.8145 10.559C55.1703 10.7032 55.5453 10.8427 55.9396 10.9773C55.8242 11.6408 55.7088 12.1745 55.5934 12.5784C55.3722 13.492 54.6558 13.9488 53.4441 13.9488H49.809C48.5589 13.9488 47.9338 13.3526 47.9338 12.1601V9.90984ZM47.5299 5.79876H55.7232V4.58707H47.5299V5.79876ZM47.5299 7.93364H55.7232V6.72195H47.5299V7.93364ZM55.7232 2.46662H47.5299V3.66388H55.7232V2.46662ZM45.7845 9.7656L46.8375 10.1262C46.4144 11.2802 45.972 12.3332 45.5104 13.2853C45.2027 13.1506 44.8469 13.0112 44.443 12.8669C44.9142 12.0303 45.3614 10.9965 45.7845 9.7656ZM56.1271 10.2272L56.9638 9.57807C57.6465 10.3185 58.3437 11.1311 59.0554 12.0159L58.1322 12.7227C57.4783 11.838 56.8099 11.0061 56.1271 10.2272ZM50.4582 9.75117L51.2371 9.08763C51.8237 9.62616 52.468 10.2705 53.17 11.0206L52.2901 11.7707C51.5785 10.934 50.9678 10.2608 50.4582 9.75117Z" fill="black"/>
<path d="M0.830462 24.0155V17.6065H4.85639V18.3648H1.60676V20.4319H4.74807V21.1721H1.60676V23.2573H4.92861V24.0155H0.830462ZM5.58996 24.0155L7.35018 21.5602L5.68023 19.2313H6.56485L7.81957 21.0367L9.03818 19.2313H9.94086L8.28896 21.5783L10.0221 24.0155H9.13747L7.81957 22.0838L6.49263 24.0155H5.58996ZM10.7186 24.0155V19.2313H11.4768V24.0155H10.7186ZM10.7005 18.4821V17.5975H11.4949V18.4821H10.7005ZM14.3121 24.0155C13.8788 24.0155 13.5569 23.9162 13.3463 23.7176C13.1417 23.519 13.0394 23.2091 13.0394 22.7879V18.112H13.7976V22.7698C13.7976 22.9865 13.8458 23.1369 13.942 23.2211C14.0383 23.3054 14.1858 23.3475 14.3843 23.3475H15.0704V24.0155H14.3121ZM12.3353 19.8993V19.2313H15.0704V19.8993H12.3353ZM18.4608 24.0155V17.6065H19.2371V24.0155H18.4608ZM20.8737 24.0155V19.2313H21.5687L21.5958 20.4499L21.5055 20.3687C21.5657 20.0859 21.671 19.8542 21.8215 19.6736C21.9719 19.4871 22.1525 19.3487 22.3631 19.2584C22.5797 19.1681 22.8114 19.123 23.0581 19.123C23.4252 19.123 23.7261 19.2042 23.9608 19.3667C24.2015 19.5292 24.3791 19.7489 24.4934 20.0257C24.6138 20.2965 24.6739 20.6004 24.6739 20.9374V24.0155H23.9157V21.154C23.9157 20.8591 23.8796 20.6124 23.8074 20.4138C23.7412 20.2092 23.6328 20.0558 23.4824 19.9535C23.332 19.8451 23.1364 19.791 22.8957 19.791C22.5286 19.791 22.2247 19.9083 21.984 20.143C21.7493 20.3717 21.6319 20.7087 21.6319 21.154V24.0155H20.8737ZM26.2796 24.0155V18.798C26.2796 18.443 26.3819 18.1571 26.5865 17.9405C26.7911 17.7178 27.11 17.6065 27.5433 17.6065H28.3016V18.2745H27.5975C27.4109 18.2745 27.2695 18.3256 27.1732 18.4279C27.0829 18.5302 27.0378 18.6717 27.0378 18.8522V24.0155H26.2796ZM25.6296 19.8993V19.2313H28.2384V19.8993H25.6296ZM30.8434 24.1238C30.4041 24.1238 30.0189 24.0215 29.6879 23.8169C29.357 23.6123 29.1012 23.3235 28.9207 22.9503C28.7401 22.5712 28.6499 22.1289 28.6499 21.6234C28.6499 21.1119 28.7401 20.6696 28.9207 20.2965C29.1012 19.9234 29.357 19.6345 29.6879 19.4299C30.0189 19.2253 30.4041 19.123 30.8434 19.123C31.2827 19.123 31.6648 19.2253 31.9898 19.4299C32.3207 19.6345 32.5765 19.9234 32.757 20.2965C32.9376 20.6696 33.0278 21.1119 33.0278 21.6234C33.0278 22.1289 32.9376 22.5712 32.757 22.9503C32.5765 23.3235 32.3207 23.6123 31.9898 23.8169C31.6648 24.0215 31.2827 24.1238 30.8434 24.1238ZM30.8434 23.4017C31.2827 23.4017 31.6227 23.2452 31.8634 22.9323C32.1101 22.6133 32.2335 22.1771 32.2335 21.6234C32.2335 21.0698 32.1101 20.6365 31.8634 20.3236C31.6227 20.0046 31.2827 19.8451 30.8434 19.8451C30.4041 19.8451 30.061 20.0046 29.8143 20.3236C29.5676 20.6365 29.4442 21.0698 29.4442 21.6234C29.4442 22.1771 29.5676 22.6133 29.8143 22.9323C30.061 23.2452 30.4041 23.4017 30.8434 23.4017Z" fill="black"/>
</svg>
