<svg width="400" height="400" viewBox="0 0 400 400" fill="none" xmlns="http://www.w3.org/2000/svg">
<g clip-path="url(#clip0_50_207)">
<path d="M360 0C382.091 0 400 17.9086 400 40V360C400 382.091 382.091 400 360 400H40C17.9086 400 0 382.091 0 360V40C0 17.9086 17.9086 0 40 0H360ZM320 366H355V36H320V366ZM45 365H80V35H45V365ZM193 315V337.801L178 323V342L200 365L222 343V323L207 338V315H193ZM118.5 102.5C109.669 102.5 102.5 109.669 102.5 118.5V281.5C102.5 290.331 109.669 297.5 118.5 297.5H281.5C290.331 297.5 297.5 290.331 297.5 281.5V118.5C297.5 109.669 290.331 102.5 281.5 102.5H118.5ZM277.5 117.5C280.26 117.5 282.5 119.74 282.5 122.5V277.5C282.5 280.26 280.26 282.5 277.5 282.5H122.5C119.74 282.5 117.5 280.26 117.5 277.5V122.5C117.5 119.74 119.74 117.5 122.5 117.5H277.5ZM162.685 190.286C146.527 196.281 135 211.843 135 230.076C135 253.49 154.01 272.5 177.424 272.5C199.116 272.5 217.027 256.185 219.546 235.167H210.984C208.524 251.487 194.426 264.015 177.424 264.015C158.693 264.015 143.485 248.807 143.485 230.076C143.485 215.98 152.097 203.879 164.342 198.754L162.685 190.286ZM177.424 160.076C170.4 160.076 164.697 165.779 164.697 172.803C164.697 173.645 164.779 174.467 164.935 175.263L173.645 219.792C174.813 225.766 180.048 230.076 186.135 230.076H222.89L236.551 261.435C237.701 264.199 240.428 266.145 243.606 266.145C247.821 266.144 251.242 262.723 251.242 258.508C251.242 257.381 250.998 256.311 250.559 255.348L233.23 215.571C232.017 212.786 229.267 210.986 226.229 210.985H197.859L195.41 198.47H215.394C218.438 198.47 220.909 195.998 220.909 192.955C220.909 189.911 218.438 187.439 215.394 187.439H193.253L189.979 170.707C188.979 164.679 183.735 160.076 177.424 160.076ZM252 177.96C247.582 177.96 244 181.542 244 185.96C244 190.378 247.582 193.96 252 193.96C256.418 193.96 260 190.378 260 185.96C260 181.542 256.418 177.96 252 177.96ZM252 156.48C247.582 156.48 244 160.062 244 164.48C244 168.899 247.582 172.48 252 172.48C256.418 172.48 260 168.899 260 164.48C260 160.062 256.418 156.48 252 156.48ZM178.273 132.5C171.713 132.5 166.394 137.818 166.394 144.379C166.394 150.939 171.713 156.258 178.273 156.258C184.834 156.258 190.152 150.939 190.152 144.379C190.152 137.819 184.834 132.5 178.273 132.5ZM252 135C247.582 135 244 138.582 244 143C244 147.418 247.582 151 252 151C256.418 151 260 147.418 260 143C260 138.582 256.418 135 252 135ZM178 62V82L193 67V90H207V67.1992L222 82V63L200 40L178 62Z" fill="black"/>
</g>
<defs>
<clipPath id="clip0_50_207">
<rect width="400" height="400" fill="white"/>
</clipPath>
</defs>
</svg>
