<svg width="40" height="40" viewBox="0 0 40 40" fill="none" xmlns="http://www.w3.org/2000/svg">
<path d="M3 34.2861C3.00023 35.7849 4.21514 36.9998 5.71387 37H9.28613V40H5.71387C2.55829 39.9998 0.000226758 37.4417 0 34.2861V30.7139H3V34.2861ZM23.5713 40H16.4287V37H23.5713V40ZM40 34.2861C39.9998 37.4417 37.4417 39.9998 34.2861 40H30.7139V37H34.2861C35.7849 36.9998 36.9998 35.7849 37 34.2861V30.7139H40V34.2861ZM40 23.5713H37V16.4287H40V23.5713ZM3 23.5713H0V16.4287H3V23.5713ZM34.2861 0C37.4417 0.000226756 39.9998 2.55829 40 5.71387V9.28613H37V5.71387C36.9998 4.21514 35.7849 3.00023 34.2861 3H30.7139V0H34.2861ZM9.28613 3H5.71387C4.21514 3.00023 3.00023 4.21514 3 5.71387V9.28613H0V5.71387C0.000225727 2.55829 2.55829 0.00022624 5.71387 0H9.28613V3ZM23.5713 3H16.4287V0H23.5713V3Z" fill="#808080"/>
</svg>
