<svg width="19" height="29" viewBox="0 0 19 29" fill="none" xmlns="http://www.w3.org/2000/svg">
<path d="M18.5901 14.1547C18.5901 16.3917 18.4101 18.3845 18.0501 20.1329C17.7159 21.8814 17.1759 23.3727 16.4302 24.6069C15.7103 25.8154 14.7461 26.7411 13.5376 27.3839C12.3548 28.0267 10.9278 28.3481 9.25644 28.3481C7.68797 28.3481 6.31235 28.0267 5.12957 27.3839C3.9725 26.7411 3.00828 25.8154 2.2369 24.6069C1.49124 23.3727 0.925562 21.8814 0.539873 20.1329C0.179897 18.3845 -9.07968e-05 16.3917 -9.07968e-05 14.1547C-9.07968e-05 11.1721 0.295604 8.62654 0.886993 6.51811C1.50409 4.40968 2.49403 2.80265 3.8568 1.697C5.21956 0.565652 7.01944 -2.41892e-05 9.25644 -2.41892e-05C11.3649 -2.41892e-05 13.1005 0.565652 14.4632 1.697C15.8517 2.80265 16.8802 4.40968 17.5487 6.51811C18.243 8.62654 18.5901 11.1721 18.5901 14.1547ZM4.12678 14.1547C4.12678 17.7545 4.49961 20.4543 5.24527 22.2542C6.01665 24.0284 7.35371 24.9155 9.25644 24.9155C11.1335 24.9155 12.4577 24.0284 13.229 22.2542C14.0261 20.48 14.4247 17.7802 14.4247 14.1547C14.4247 11.7635 14.2575 9.78361 13.9233 8.21514C13.589 6.62096 13.0362 5.42533 12.2648 4.62824C11.5191 3.83115 10.5164 3.4326 9.25644 3.4326C7.99652 3.4326 6.98087 3.83115 6.2095 4.62824C5.46383 5.42533 4.92387 6.62096 4.5896 8.21514C4.28105 9.78361 4.12678 11.7635 4.12678 14.1547Z" fill="#808080"/>
</svg>
