<svg width="39" height="37" viewBox="0 0 39 37" fill="none" xmlns="http://www.w3.org/2000/svg">
<rect width="10.9415" height="36.6541" fill="#808080"/>
<path d="M35.9214 14.6026C35.9214 16.8396 35.7414 18.8323 35.3814 20.5808C35.0472 22.3293 34.5072 23.8206 33.7615 25.0548C33.0416 26.2633 32.0774 27.1889 30.8689 27.8317C29.6861 28.4746 28.2591 28.796 26.5877 28.796C25.0193 28.796 23.6436 28.4746 22.4609 27.8317C21.3038 27.1889 20.3396 26.2633 19.5682 25.0548C18.8225 23.8206 18.2569 22.3293 17.8712 20.5808C17.5112 18.8323 17.3312 16.8396 17.3312 14.6026C17.3312 11.62 17.6269 9.07442 18.2183 6.96599C18.8354 4.85756 19.8253 3.25052 21.1881 2.14488C22.5509 1.01353 24.3507 0.447852 26.5877 0.447852C28.6962 0.447852 30.4318 1.01353 31.7945 2.14488C33.183 3.25052 34.2115 4.85756 34.88 6.96599C35.5743 9.07442 35.9214 11.62 35.9214 14.6026ZM21.4581 14.6026C21.4581 18.2024 21.8309 20.9022 22.5766 22.7021C23.348 24.4763 24.685 25.3633 26.5877 25.3633C28.4648 25.3633 29.789 24.4763 30.5603 22.7021C31.3574 20.9279 31.756 18.2281 31.756 14.6026C31.756 12.2114 31.5888 10.2315 31.2546 8.66302C30.9203 7.06884 30.3675 5.87321 29.5961 5.07612C28.8504 4.27903 27.8477 3.88048 26.5877 3.88048C25.3278 3.88048 24.3122 4.27903 23.5408 5.07612C22.7951 5.87321 22.2552 7.06884 21.9209 8.66302C21.6124 10.2315 21.4581 12.2114 21.4581 14.6026Z" fill="#808080"/>
</svg>
