<svg width="30" height="28" viewBox="0 0 30 28" fill="none" xmlns="http://www.w3.org/2000/svg">
<path d="M0.447171 2.55319H7.3711C6.88547 1.63 6.50561 0.956837 6.23154 0.533707L7.35668 -1.24434e-05C7.62594 0.4135 8.02984 1.08666 8.56837 2.01947L7.51535 2.55319H14.3527V3.64948H5.60406C5.5704 4.52458 5.53434 5.26987 5.49587 5.88533H12.4631C12.3477 7.97213 12.2227 9.78485 12.088 11.3235C11.9822 13.0641 11.136 13.9344 9.54926 13.9344C8.8184 13.9344 7.84231 13.8959 6.62101 13.819C6.57293 13.4536 6.5008 13.0112 6.40464 12.4919C7.62594 12.6554 8.61645 12.7371 9.37616 12.7371C10.2609 12.7371 10.7561 12.213 10.8619 11.1648C10.9773 10.0205 11.0783 8.62124 11.1648 6.96719H5.41653C5.14727 10.1407 3.67834 12.6025 1.00974 14.3527C0.750093 14.045 0.456787 13.718 0.129824 13.3718C2.6686 11.6985 4.02934 9.45789 4.21206 6.64985C4.27937 5.89014 4.33467 4.89001 4.37794 3.64948H0.447171V2.55319ZM17.1656 14.1219H16.0404V2.27912H20.2958C20.5362 1.56749 20.767 0.822204 20.9882 0.0432621L22.2287 0.389459C21.9787 1.06262 21.7335 1.6925 21.493 2.27912H28.2439V12.4198C28.2439 13.5065 27.7005 14.0498 26.6139 14.0498C26.008 14.0498 25.2772 14.0402 24.4213 14.021C24.3732 13.6844 24.3059 13.3093 24.2193 12.8958C25.0464 12.9631 25.7484 12.9968 26.3254 12.9968C26.8543 12.9968 27.1187 12.7179 27.1187 12.1601V3.34655H17.1656V14.1219ZM19.1418 5.42373H25.1137V10.4869H20.2381V11.4822H19.1418V5.42373ZM24.0174 6.46232H20.2381V9.44827H24.0174V6.46232Z" fill="white"/>
<path d="M2.10323 24.0012V18.3504H0.108321V17.5922H4.87445V18.3504H2.87954V24.0012H2.10323ZM6.84842 24.1095C6.40911 24.1095 6.02397 24.0072 5.69299 23.8026C5.36201 23.598 5.10625 23.3091 4.92572 22.936C4.74518 22.5569 4.65491 22.1146 4.65491 21.6091C4.65491 21.0976 4.74518 20.6552 4.92572 20.2821C5.10625 19.909 5.36201 19.6202 5.69299 19.4156C6.02397 19.211 6.40911 19.1087 6.84842 19.1087C7.28772 19.1087 7.66985 19.211 7.99481 19.4156C8.3258 19.6202 8.58155 19.909 8.76209 20.2821C8.94262 20.6552 9.03289 21.0976 9.03289 21.6091C9.03289 22.1146 8.94262 22.5569 8.76209 22.936C8.58155 23.3091 8.3258 23.598 7.99481 23.8026C7.66985 24.0072 7.28772 24.1095 6.84842 24.1095ZM6.84842 23.3873C7.28772 23.3873 7.62773 23.2309 7.86844 22.9179C8.11517 22.599 8.23854 22.1627 8.23854 21.6091C8.23854 21.0554 8.11517 20.6221 7.86844 20.3092C7.62773 19.9903 7.28772 19.8308 6.84842 19.8308C6.40911 19.8308 6.0661 19.9903 5.81937 20.3092C5.57263 20.6221 5.44927 21.0554 5.44927 21.6091C5.44927 22.1627 5.57263 22.599 5.81937 22.9179C6.0661 23.2309 6.40911 23.3873 6.84842 23.3873Z" fill="white"/>
</svg>
