<svg width="76" height="37" viewBox="0 0 76 37" fill="none" xmlns="http://www.w3.org/2000/svg">
<rect y="0.294891" width="10.9415" height="36.6541" fill="#808080"/>
<path d="M29.803 12.3486L29.3156 13.4121C26.7749 12.5554 24.6627 11.5805 22.9936 10.384C21.3687 11.61 19.3008 12.5849 16.7602 13.4417L16.2727 12.3634C18.6361 11.5657 20.5563 10.7238 22.063 9.64549C20.2166 8.06499 19.0349 6.11521 18.5475 3.63367H16.4352V2.55539H22.8606C22.447 1.92023 21.9891 1.32939 21.4574 0.679461L22.4027 0.0443063C22.964 0.709004 23.481 1.40324 23.9389 2.11225L23.2742 2.55539H29.611V3.63367H27.159C26.6272 6.15952 25.549 8.07976 23.8798 9.63072C25.4456 10.6795 27.4249 11.551 29.803 12.3486ZM25.9625 3.63367H19.7439C20.1871 5.8641 21.2801 7.56277 22.964 8.93648C24.5002 7.59232 25.4751 5.90842 25.9625 3.63367ZM43.0822 2.79172H32.5357V4.96307H31.4721V1.81683H37.4544C37.2181 1.34416 36.9374 0.871485 36.6568 0.413582L37.6464 -7.17172e-06C37.9714 0.531751 38.3111 1.18168 38.5918 1.81683H44.1605V4.96307H43.0822V2.79172ZM38.4145 8.09453H44.4264V9.09896H38.4145V12.2747C38.4145 13.0576 38.1043 13.4269 37.2476 13.4269H34.5002L34.2048 12.3929H37.3067V9.09896H31.162V8.09453H37.3067V6.95716C38.6213 6.45494 39.7587 5.84933 40.5268 5.22895H33.4367V4.25406H41.9744V5.21418C41.1767 6.0709 39.936 6.86853 38.4145 7.50369V8.09453ZM49.2713 4.49039C49.5371 4.03249 49.7735 3.57459 50.0098 3.11669L50.8961 3.58936C49.8769 5.56868 48.5475 7.57754 47.5578 8.61152C48.5327 8.37518 49.5224 8.09453 50.4086 7.84342L50.5859 8.80354C49.1974 9.20236 47.5726 9.60118 46.2875 9.86706L45.9773 8.95125C46.7306 8.33087 47.7055 7.04579 48.6361 5.56868C47.7794 5.74593 46.8636 5.89364 46.0955 5.99704L45.8296 5.05169C46.6125 4.22451 47.6908 2.11225 48.3998 0.103391L49.3747 0.457896C48.7247 2.17134 47.8828 3.84047 47.159 4.88921C47.8828 4.78581 48.6066 4.65288 49.2713 4.49039ZM58.2225 12.5258L58.4884 9.97046L59.4042 10.4284L59.1383 12.7474C59.0497 13.4564 58.5032 13.7666 57.7646 13.4269C56.7897 13.0133 55.9182 12.2157 55.224 11.0192C53.998 11.743 52.6982 12.2747 51.354 12.6736L50.9404 11.6987C52.2993 11.3294 53.5844 10.8272 54.7661 10.1477C54.4116 9.37961 54.1162 8.49335 53.8798 7.48892L51.162 7.93205L50.9995 6.94239L53.673 6.51403C53.5549 5.8641 53.4662 5.15509 53.3924 4.40177L51.2358 4.69719L51.0881 3.73707L53.3185 3.44165C53.2742 2.74741 53.2595 2.00886 53.2595 1.22599V0.192017H54.2934V1.22599C54.2934 1.96454 54.3082 2.64401 54.3525 3.30871L58.4589 2.76218L58.5918 3.70753L54.4264 4.26883C54.4854 5.02215 54.5888 5.71639 54.6922 6.35155L58.9906 5.67208L59.1383 6.61743L54.899 7.31167C55.1058 8.19793 55.3569 8.95125 55.6376 9.60118C56.4943 9.01034 57.2919 8.33087 58.0157 7.50369L58.7395 8.12407C57.9419 9.03988 57.0556 9.80797 56.0955 10.4727C56.7159 11.5214 57.4397 12.1861 58.2225 12.5258ZM57.7646 1.90546L57.1886 2.64401C56.5829 2.11225 55.5637 1.3737 54.8695 1.03397L55.4308 0.310185C56.1693 0.694232 57.1295 1.3737 57.7646 1.90546ZM46.0364 12.8508L45.7558 11.8464C47.3067 11.5066 49.0645 11.0487 50.5416 10.5761L50.7336 11.5805C49.3008 12.0236 47.5135 12.5111 46.0364 12.8508ZM71.2063 5.25849C72.0778 5.87887 73.097 6.45494 74.2934 7.03102L73.7764 7.96159C72.4766 7.31167 71.354 6.64697 70.3939 5.93796C69.3894 6.70605 68.1191 7.41506 66.5386 8.09453L66.0216 7.1935C67.484 6.58788 68.6657 5.95273 69.5815 5.28803C68.9315 4.71196 68.3702 4.12112 67.8828 3.48596C67.4249 4.00295 66.9227 4.46085 66.3761 4.88921L65.7705 4.10635C67.2624 2.93943 68.2521 1.53618 68.7838 0.118162L69.7883 0.265872C69.6553 0.679461 69.4781 1.07828 69.286 1.46233H73.3481V2.20088C72.8606 3.35302 72.1812 4.35745 71.2063 5.25849ZM64.2639 8.24224V11.1965C64.899 11.0192 65.5194 10.8272 66.1398 10.6056L66.2284 11.551C64.5593 12.2157 62.7277 12.644 60.645 13.0724L60.4825 12.0236C60.7484 11.9793 61.0143 11.9202 61.2801 11.8759V6.29246H62.2255V11.6839C62.5948 11.61 62.9493 11.5214 63.3038 11.4328V5.08124H61.2358V0.620377H65.6524V5.08124H64.2639V7.29689H66.0069V8.24224H64.2639ZM64.7218 1.5805H62.2255V4.15066H64.7218V1.5805ZM68.5327 2.68833C69.0497 3.39734 69.6553 4.04726 70.3939 4.6381C71.1915 3.92909 71.7676 3.17577 72.1369 2.3929H68.7247C68.6657 2.4963 68.5918 2.58493 68.5327 2.68833ZM68.2521 13.6484H67.2329V7.85819H73.0822V13.6484H72.063V12.777H68.2521V13.6484ZM72.063 8.81831H68.2521V11.7873H72.063V8.81831Z" fill="black"/>
<path d="M17.7408 24.1866V18.5358H15.7459V17.7776H20.512V18.5358H18.5171V24.1866H17.7408ZM22.486 24.2949C22.0347 24.2949 21.6435 24.1926 21.3125 23.988C20.9875 23.7834 20.7348 23.4945 20.5543 23.1214C20.3797 22.7423 20.2925 22.3 20.2925 21.7945C20.2925 21.289 20.3797 20.8497 20.5543 20.4766C20.7348 20.1035 20.9845 19.8146 21.3035 19.61C21.6284 19.3994 22.0106 19.2941 22.4499 19.2941C22.8651 19.2941 23.2322 19.3933 23.5511 19.5919C23.8701 19.7845 24.1168 20.0673 24.2913 20.4405C24.4719 20.8136 24.5621 21.2679 24.5621 21.8035V22.0292H21.0868C21.1169 22.5407 21.2523 22.9258 21.493 23.1846C21.7398 23.4434 22.0708 23.5727 22.486 23.5727C22.7989 23.5727 23.0547 23.5005 23.2533 23.3561C23.4579 23.2056 23.5993 23.0101 23.6775 22.7694L24.4899 22.8325C24.3636 23.2598 24.1228 23.6119 23.7678 23.8887C23.4188 24.1595 22.9915 24.2949 22.486 24.2949ZM21.0868 21.3612H23.7317C23.6956 20.8978 23.5602 20.5578 23.3255 20.3412C23.0968 20.1245 22.8049 20.0162 22.4499 20.0162C22.0828 20.0162 21.7789 20.1305 21.5382 20.3592C21.3035 20.5819 21.153 20.9159 21.0868 21.3612ZM24.9299 24.1866L26.6901 21.7313L25.0202 19.4024H25.9048L27.1595 21.2077L28.3781 19.4024H29.2808L27.6289 21.7493L29.3621 24.1866H28.4774L27.1595 22.2548L25.8326 24.1866H24.9299ZM31.7833 24.1866C31.35 24.1866 31.028 24.0873 30.8174 23.8887C30.6128 23.6901 30.5105 23.3802 30.5105 22.9589V18.2831H31.2687V22.9409C31.2687 23.1575 31.3169 23.3079 31.4132 23.3922C31.5095 23.4764 31.6569 23.5186 31.8555 23.5186H32.5415V24.1866H31.7833ZM29.8064 20.0704V19.4024H32.5415V20.0704H29.8064ZM35.932 24.1866V17.7776H36.7083V23.8255L36.3201 23.4283H39.9128V24.1866H35.932ZM40.6103 24.1866V19.4024H41.3686V24.1866H40.6103ZM40.5922 18.6532V17.7685H41.3866V18.6532H40.5922ZM42.9023 24.1866V19.4024H43.5973L43.6244 20.621L43.5341 20.5397C43.5943 20.2569 43.6996 20.0252 43.8501 19.8447C44.0005 19.6581 44.181 19.5197 44.3917 19.4295C44.6083 19.3392 44.84 19.2941 45.0867 19.2941C45.4538 19.2941 45.7547 19.3753 45.9894 19.5378C46.2301 19.7003 46.4076 19.9199 46.522 20.1967C46.6423 20.4675 46.7025 20.7714 46.7025 21.1084V24.1866H45.9443V21.3251C45.9443 21.0302 45.9082 20.7835 45.8359 20.5849C45.7698 20.3803 45.6614 20.2268 45.511 20.1245C45.3605 20.0162 45.165 19.962 44.9242 19.962C44.5572 19.962 44.2533 20.0794 44.0125 20.3141C43.7778 20.5428 43.6605 20.8798 43.6605 21.3251V24.1866H42.9023ZM49.91 24.2949C49.4587 24.2949 49.0676 24.1926 48.7366 23.988C48.4116 23.7834 48.1589 23.4945 47.9783 23.1214C47.8038 22.7423 47.7165 22.3 47.7165 21.7945C47.7165 21.289 47.8038 20.8497 47.9783 20.4766C48.1589 20.1035 48.4086 19.8146 48.7275 19.61C49.0525 19.3994 49.4346 19.2941 49.8739 19.2941C50.2892 19.2941 50.6563 19.3933 50.9752 19.5919C51.2941 19.7845 51.5409 20.0673 51.7154 20.4405C51.8959 20.8136 51.9862 21.2679 51.9862 21.8035V22.0292H48.5109C48.541 22.5407 48.6764 22.9258 48.9171 23.1846C49.1638 23.4434 49.4948 23.5727 49.91 23.5727C50.223 23.5727 50.4787 23.5005 50.6773 23.3561C50.8819 23.2056 51.0233 23.0101 51.1016 22.7694L51.914 22.8325C51.7876 23.2598 51.5469 23.6119 51.1918 23.8887C50.8428 24.1595 50.4155 24.2949 49.91 24.2949ZM48.5109 21.3612H51.1557C51.1196 20.8978 50.9842 20.5578 50.7495 20.3412C50.5209 20.1245 50.229 20.0162 49.8739 20.0162C49.5069 20.0162 49.203 20.1305 48.9622 20.3592C48.7275 20.5819 48.5771 20.9159 48.5109 21.3612Z" fill="black"/>
</svg>
