<svg width="73" height="37" viewBox="0 0 73 37" fill="none" xmlns="http://www.w3.org/2000/svg">
<rect y="0.123932" width="10.9415" height="36.6541" fill="#808080"/>
<path d="M35.9213 14.7266C35.9213 16.9636 35.7413 18.9563 35.3813 20.7048C35.0471 22.4532 34.5071 23.9445 33.7614 25.1787C33.0415 26.3872 32.0772 27.3129 30.8688 27.9557C29.686 28.5985 28.2589 28.9199 26.5876 28.9199C25.0191 28.9199 23.6435 28.5985 22.4607 27.9557C21.3037 27.3129 20.3395 26.3872 19.5681 25.1787C18.8224 23.9445 18.2567 22.4532 17.8711 20.7048C17.5111 18.9563 17.3311 16.9636 17.3311 14.7266C17.3311 11.7439 17.6268 9.19838 18.2182 7.08995C18.8353 4.98152 19.8252 3.37448 21.188 2.26884C22.5507 1.13749 24.3506 0.571814 26.5876 0.571814C28.696 0.571814 30.4316 1.13749 31.7944 2.26884C33.1829 3.37448 34.2114 4.98152 34.8799 7.08995C35.5742 9.19838 35.9213 11.7439 35.9213 14.7266ZM21.458 14.7266C21.458 18.3263 21.8308 21.0262 22.5765 22.826C23.3478 24.6002 24.6849 25.4873 26.5876 25.4873C28.4646 25.4873 29.7888 24.6002 30.5602 22.826C31.3573 21.0519 31.7558 18.3521 31.7558 14.7266C31.7558 12.3353 31.5887 10.3554 31.2544 8.78698C30.9202 7.1928 30.3674 5.99717 29.596 5.20008C28.8503 4.40299 27.8475 4.00444 26.5876 4.00444C25.3277 4.00444 24.3121 4.40299 23.5407 5.20008C22.795 5.99717 22.255 7.1928 21.9208 8.78698C21.6122 10.3554 21.458 12.3353 21.458 14.7266Z" fill="#808080"/>
<path d="M45.1186 0.75009H54.9131V5.51029H53.7736V4.91887H46.2582V5.58242H45.1186V0.75009ZM45.3927 9.9243V8.87129L46.0202 7.38553H42.8828V6.33251H57.1778V7.38553H47.2103L46.59 8.88571H55.2016C55.0862 10.0012 54.9756 10.9148 54.8699 11.6264C54.6391 13.1939 53.7351 13.9777 52.158 13.9777C51.0521 13.9777 49.8692 13.9585 48.6095 13.92C48.5518 13.593 48.47 13.1747 48.3642 12.665C49.7394 12.7804 50.9367 12.8381 51.956 12.8381C52.9946 12.8381 53.5812 12.3717 53.7159 11.4389C53.7832 11.0542 53.8505 10.5494 53.9178 9.9243H45.3927ZM53.7736 1.78868H46.2582V3.88028H53.7736V1.78868ZM61.9525 13.1555C63.7604 12.5063 65.3255 11.7539 66.6478 10.898C66.3064 10.0277 66.0371 8.9963 65.84 7.80385L62.7603 8.23659L62.5872 7.198L65.6957 6.76526C65.614 6.0921 65.5539 5.37326 65.5154 4.60874L62.9045 4.90445L62.7314 3.86586L65.4577 3.56294C65.4048 2.56281 65.3567 1.41363 65.3135 0.115396H66.4963C66.5203 1.35593 66.5516 2.46184 66.5901 3.43311L71.4152 2.88497L71.545 3.90913L66.6333 4.47892C66.667 5.23863 66.7223 5.95025 66.7992 6.6138L71.7758 5.91419L71.9056 6.93835L66.9362 7.64517C67.0997 8.64049 67.3209 9.50598 67.5998 10.2416C68.6191 9.47232 69.4678 8.63087 70.1458 7.7173L71.0834 8.42411C70.2179 9.46751 69.213 10.4123 68.0686 11.2586C68.4388 11.9221 68.8812 12.4294 69.3957 12.7804C70.0304 13.1555 70.4391 12.9631 70.6218 12.2034C70.7468 11.588 70.8478 10.9052 70.9247 10.1551C71.3671 10.3474 71.7373 10.4869 72.0354 10.5734C71.872 11.612 71.7085 12.3958 71.545 12.9247C71.2661 13.7421 70.7901 14.1508 70.1169 14.1508C69.4149 14.1508 68.7658 13.8623 68.1696 13.2853C67.7801 12.9151 67.4315 12.4559 67.1238 11.9077C65.8015 12.7636 64.3181 13.5065 62.6737 14.1364C62.5006 13.8671 62.2602 13.5401 61.9525 13.1555ZM59.4858 8.79916C60.3417 8.67415 61.3514 8.51066 62.515 8.30872C62.4573 8.66453 62.4141 9.03477 62.3852 9.41943C60.7792 9.66946 59.3704 9.89545 58.1587 10.0974L57.9279 9.01553C58.5963 8.2991 59.3295 7.27734 60.1277 5.95025C59.3488 5.99353 58.6155 6.04882 57.9279 6.11614L57.6539 5.13525C58.5482 3.91394 59.4666 2.20219 60.409 -2.48756e-06L61.5053 0.432743C60.5148 2.38491 59.6637 3.92356 58.9521 5.0487C59.5243 5.02946 60.1037 5.00783 60.6903 4.98379C61.0221 4.39237 61.3658 3.75046 61.7217 3.05807L62.7891 3.59179C61.6159 5.62088 60.5148 7.35668 59.4858 8.79916ZM57.6539 12.1313C59.3464 11.7659 61.0581 11.3668 62.7891 10.934C62.7603 11.3187 62.7458 11.6841 62.7458 12.0303C61.1399 12.4054 59.5483 12.8045 57.9712 13.2276L57.6539 12.1313ZM67.708 0.879914L68.3282 0.158671C69.011 0.591417 69.7419 1.11071 70.5208 1.71656L69.8284 2.5532C69.0303 1.87042 68.3234 1.31266 67.708 0.879914Z" fill="black"/>
<path d="M43.468 24.0156V17.6066H44.2443V23.6545L43.8562 23.2573H47.4488V24.0156H43.468ZM48.1464 24.0156V19.2314H48.9046V24.0156H48.1464ZM48.1283 18.4822V17.5976H48.9227V18.4822H48.1283ZM50.4383 24.0156V19.2314H51.1334L51.1605 20.45L51.0702 20.3688C51.1304 20.0859 51.2357 19.8543 51.3861 19.6737C51.5366 19.4872 51.7171 19.3488 51.9277 19.2585C52.1444 19.1682 52.3761 19.1231 52.6228 19.1231C52.9899 19.1231 53.2908 19.2043 53.5255 19.3668C53.7662 19.5293 53.9437 19.7489 54.058 20.0258C54.1784 20.2966 54.2386 20.6005 54.2386 20.9375V24.0156H53.4803V21.1541C53.4803 20.8592 53.4442 20.6125 53.372 20.4139C53.3058 20.2093 53.1975 20.0559 53.047 19.9536C52.8966 19.8452 52.701 19.7911 52.4603 19.7911C52.0932 19.7911 51.7893 19.9084 51.5486 20.1431C51.3139 20.3718 51.1966 20.7088 51.1966 21.1541V24.0156H50.4383ZM57.4461 24.1239C56.9948 24.1239 56.6036 24.0216 56.2726 23.817C55.9477 23.6124 55.6949 23.3235 55.5144 22.9504C55.3399 22.5713 55.2526 22.129 55.2526 21.6235C55.2526 21.118 55.3399 20.6787 55.5144 20.3056C55.6949 19.9325 55.9447 19.6436 56.2636 19.439C56.5886 19.2284 56.9707 19.1231 57.41 19.1231C57.8252 19.1231 58.1923 19.2224 58.5113 19.421C58.8302 19.6135 59.0769 19.8964 59.2515 20.2695C59.432 20.6426 59.5223 21.0969 59.5223 21.6325V21.8582H56.047C56.077 22.3697 56.2125 22.7549 56.4532 23.0136C56.6999 23.2724 57.0309 23.4018 57.4461 23.4018C57.759 23.4018 58.0148 23.3296 58.2134 23.1851C58.418 23.0347 58.5594 22.8391 58.6376 22.5984L59.45 22.6616C59.3237 23.0888 59.083 23.4409 58.7279 23.7177C58.3789 23.9885 57.9516 24.1239 57.4461 24.1239ZM56.047 21.1902H58.6918C58.6557 20.7268 58.5203 20.3868 58.2856 20.1702C58.0569 19.9536 57.7651 19.8452 57.41 19.8452C57.0429 19.8452 56.739 19.9596 56.4983 20.1882C56.2636 20.4109 56.1132 20.7449 56.047 21.1902Z" fill="black"/>
<path d="M65.1599 24.16C64.6424 24.16 64.194 24.0246 63.8149 23.7538C63.4358 23.483 63.1409 23.0979 62.9303 22.5984C62.7257 22.0989 62.6234 21.5062 62.6234 20.8201C62.6234 20.1341 62.7257 19.5413 62.9303 19.0419C63.1409 18.5364 63.4358 18.1482 63.8149 17.8774C64.194 17.6006 64.6424 17.4622 65.1599 17.4622C65.6834 17.4622 66.1348 17.6006 66.5139 17.8774C66.893 18.1482 67.1849 18.5333 67.3895 19.0328C67.6001 19.5323 67.7054 20.1281 67.7054 20.8201C67.7054 21.5062 67.6001 22.0989 67.3895 22.5984C67.1849 23.0979 66.893 23.483 66.5139 23.7538C66.1348 24.0246 65.6834 24.16 65.1599 24.16ZM65.1599 23.4018C65.7135 23.4018 66.1408 23.1791 66.4417 22.7338C66.7426 22.2825 66.893 21.6446 66.893 20.8201C66.893 20.2665 66.8238 19.7971 66.6854 19.4119C66.553 19.0208 66.3574 18.7259 66.0987 18.5273C65.8459 18.3227 65.533 18.2204 65.1599 18.2204C64.7928 18.2204 64.4799 18.3227 64.2211 18.5273C63.9684 18.7259 63.7728 19.0208 63.6344 19.4119C63.502 19.7971 63.4358 20.2665 63.4358 20.8201C63.4358 21.6446 63.5862 22.2825 63.8871 22.7338C64.188 23.1791 64.6123 23.4018 65.1599 23.4018Z" fill="#808080"/>
</svg>
