<svg width="117" height="100" viewBox="0 0 117 100" fill="none" xmlns="http://www.w3.org/2000/svg">
<rect width="117" height="100" rx="6" fill="#808080"/>
<path d="M18.2612 19.8029H37.4373C36.0923 17.2461 35.0403 15.3817 34.2812 14.2099L37.3974 12.7317C38.1431 13.8769 39.2617 15.7413 40.7532 18.3247L37.8368 19.8029H56.7732V22.8391H32.5434C32.4502 25.2628 32.3503 27.3269 32.2438 29.0314H51.5398C51.2202 34.8109 50.8739 39.8313 50.501 44.0927C50.2081 48.9134 47.8643 51.3237 43.4698 51.3237C41.4456 51.3237 38.7423 51.2172 35.3599 51.0041C35.2267 49.992 35.027 48.7669 34.7606 47.3287C38.1431 47.7814 40.8863 48.0078 42.9904 48.0078C45.4407 48.0078 46.8123 46.5563 47.1053 43.6532C47.4249 40.4838 47.7045 36.6087 47.9442 32.0277H32.024C31.2783 40.8168 27.21 47.6349 19.8192 52.4822C19.1001 51.63 18.2878 50.7244 17.3823 49.7656C24.4135 45.1314 28.1822 38.9258 28.6882 31.1488C28.8746 29.0447 29.0278 26.2749 29.1476 22.8391H18.2612V19.8029ZM64.5635 51.843H61.4474V19.0439H73.2328C73.8986 17.073 74.5378 15.0089 75.1504 12.8516L78.5861 13.8104C77.8936 15.6747 77.2145 17.4192 76.5486 19.0439H95.2454V47.1289C95.2454 50.1385 93.7406 51.6433 90.731 51.6433C89.0531 51.6433 87.0289 51.6167 84.6585 51.5634C84.5254 50.6312 84.3389 49.5925 84.0992 48.4473C86.3897 48.6337 88.334 48.7269 89.932 48.7269C91.3968 48.7269 92.1292 47.9545 92.1292 46.4098V22.0002H64.5635V51.843ZM70.0367 27.753H86.5762V41.7756H73.073V44.5321H70.0367V27.753ZM83.5399 30.6294H73.073V38.8991H83.5399V30.6294Z" fill="white"/>
<path d="M22.8477 80.5867V64.9367H17.3227V62.8367H30.5227V64.9367H24.9977V80.5867H22.8477ZM35.9897 80.8867C34.773 80.8867 33.7064 80.6034 32.7897 80.0367C31.873 79.4701 31.1647 78.6701 30.6647 77.6367C30.1647 76.5867 29.9147 75.3617 29.9147 73.9617C29.9147 72.5451 30.1647 71.3201 30.6647 70.2867C31.1647 69.2534 31.873 68.4534 32.7897 67.8867C33.7064 67.3201 34.773 67.0367 35.9897 67.0367C37.2064 67.0367 38.2647 67.3201 39.1647 67.8867C40.0814 68.4534 40.7897 69.2534 41.2897 70.2867C41.7897 71.3201 42.0397 72.5451 42.0397 73.9617C42.0397 75.3617 41.7897 76.5867 41.2897 77.6367C40.7897 78.6701 40.0814 79.4701 39.1647 80.0367C38.2647 80.6034 37.2064 80.8867 35.9897 80.8867ZM35.9897 78.8867C37.2064 78.8867 38.148 78.4534 38.8147 77.5867C39.498 76.7034 39.8397 75.4951 39.8397 73.9617C39.8397 72.4284 39.498 71.2284 38.8147 70.3617C38.148 69.4784 37.2064 69.0367 35.9897 69.0367C34.773 69.0367 33.823 69.4784 33.1397 70.3617C32.4564 71.2284 32.1147 72.4284 32.1147 73.9617C32.1147 75.4951 32.4564 76.7034 33.1397 77.5867C33.823 78.4534 34.773 78.8867 35.9897 78.8867Z" fill="white"/>
</svg>
