<svg width="44" height="33" viewBox="0 0 44 33" fill="none" xmlns="http://www.w3.org/2000/svg">
<path d="M14.02 13.12H21.1V15.44H14.02V18.68H11.46V15.44H2.9V13.12H11.46V10.84H4.4V8.79999C5.24 7.59999 6.06 6.21999 6.76 4.79999H3.26V2.51999H7.82C8.18 1.67999 8.48 0.859986 8.74 0.0999858L11.24 0.639986C11.06 1.21999 10.82 1.85999 10.54 2.51999H20.74V4.79999H9.54C8.86 6.19999 8.12 7.55999 7.42 8.59999H11.46V5.87999H14.02V8.59999H19.56V10.84H14.02V13.12ZM28.34 2.49999L27.02 2.99999H30.7V5.21999H22.9V2.99999H26.1C25.76 2.21999 25.38 1.49999 24.92 0.799986L27.08 -1.40667e-05C27.52 0.739986 28 1.63999 28.34 2.49999ZM41.2 3.31999V5.47999H36.32V8.69999H40.56V18.68H38.28V17.78H33.2V18.68H30.94V8.69999H34.04V0.279986H36.32V3.31999H41.2ZM28.7 13.98L30.12 13.56L30.4 15.78C28.06 16.58 25.62 17.26 23.06 17.66L22.5 15.28C23.78 15.08 25.08 14.84 26.36 14.56C27.1 12.16 27.74 8.61999 28.08 5.97999L30.22 6.39999C29.94 8.71999 29.3 11.72 28.7 13.98ZM23.1 6.51999L25.22 6.01999C25.7 8.41999 26.02 10.8 26.28 13.2L24.12 13.62C23.86 11.18 23.6 8.93999 23.1 6.51999ZM33.2 15.68H38.28V10.8H33.2V15.68Z" fill="black"/>
<path d="M4.66599 31.9332C3.92815 31.9332 3.29457 31.8089 2.76525 31.5602C2.23593 31.3116 1.8229 30.9628 1.52616 30.5136C1.22942 30.0645 1.061 29.5352 1.0209 28.9257L2.86149 28.8415C2.90961 29.1783 3.00585 29.467 3.15021 29.7076C3.30259 29.9402 3.50309 30.1166 3.75171 30.2369C4.00835 30.3572 4.32113 30.4174 4.69005 30.4174C4.99481 30.4174 5.25145 30.3813 5.45997 30.3091C5.67651 30.2369 5.84092 30.1287 5.9532 29.9843C6.06548 29.8319 6.12162 29.6475 6.12162 29.4309C6.12162 29.2304 6.0735 29.058 5.97726 28.9136C5.88102 28.7613 5.69656 28.6249 5.42388 28.5046C5.1512 28.3763 4.7502 28.252 4.22088 28.1317C3.49106 27.9633 2.90159 27.7748 2.45247 27.5663C2.01137 27.3578 1.69057 27.0971 1.49007 26.7843C1.28957 26.4635 1.18932 26.0625 1.18932 25.5813C1.18932 25.0681 1.31363 24.6189 1.56225 24.234C1.81889 23.849 2.18781 23.5483 2.66901 23.3317C3.15021 23.1152 3.72364 23.0069 4.3893 23.0069C5.09506 23.0069 5.69255 23.1312 6.18177 23.3798C6.67099 23.6285 7.05194 23.9693 7.32462 24.4024C7.60532 24.8355 7.77374 25.3327 7.82988 25.8941L6.00132 25.9904C5.97726 25.6936 5.89706 25.437 5.76072 25.2204C5.62438 24.9959 5.43992 24.8234 5.20734 24.7031C4.97476 24.5828 4.69406 24.5227 4.36524 24.5227C3.9482 24.5227 3.61938 24.6149 3.37878 24.7994C3.1462 24.9838 3.02991 25.2244 3.02991 25.5212C3.02991 25.7297 3.08204 25.9061 3.1863 26.0505C3.29858 26.1868 3.47903 26.3071 3.72765 26.4114C3.98429 26.5157 4.34519 26.6159 4.81035 26.7122C5.60433 26.8726 6.22989 27.0771 6.68703 27.3257C7.15219 27.5663 7.48101 27.855 7.67349 28.1918C7.86597 28.5287 7.96221 28.9136 7.96221 29.3467C7.96221 29.876 7.82587 30.3372 7.55319 30.7302C7.28853 31.1151 6.90758 31.4119 6.41034 31.6204C5.92112 31.8289 5.33967 31.9332 4.66599 31.9332ZM11.7782 31.7407C11.1125 31.7407 10.6233 31.5883 10.3105 31.2836C9.99773 30.9708 9.84134 30.4775 9.84134 29.8039V23.7768H11.6458V29.5873C11.6458 29.9001 11.71 30.1126 11.8383 30.2249C11.9747 30.3372 12.1752 30.3933 12.4398 30.3933H13.3421V31.7407H11.7782ZM8.80676 26.64V25.2926H13.3421V26.64H8.80676ZM16.2834 31.8851C15.6177 31.8851 15.0724 31.7327 14.6473 31.4279C14.2303 31.1151 14.0218 30.6821 14.0218 30.1287C14.0218 29.5593 14.1982 29.1222 14.5511 28.8174C14.912 28.5046 15.4413 28.2761 16.139 28.1317L18.2202 27.7227C18.2202 27.3056 18.124 26.9929 17.9315 26.7843C17.7471 26.5678 17.4784 26.4595 17.1255 26.4595C16.7806 26.4595 16.512 26.5397 16.3195 26.7001C16.127 26.8525 16.0027 27.0811 15.9466 27.3858L14.13 27.3016C14.2503 26.5959 14.5671 26.0625 15.0804 25.7016C15.6017 25.3327 16.2834 25.1483 17.1255 25.1483C18.0879 25.1483 18.8097 25.3768 19.2909 25.834C19.7801 26.2911 20.0247 26.9608 20.0247 27.843V30.0445C20.0247 30.2289 20.0528 30.3532 20.1089 30.4174C20.1731 30.4735 20.2653 30.5016 20.3856 30.5016H20.5661V31.7407C20.5099 31.7567 20.4177 31.7728 20.2894 31.7888C20.1691 31.8049 20.0488 31.8129 19.9285 31.8129C19.6719 31.8129 19.4313 31.7688 19.2067 31.6805C18.9902 31.5923 18.8137 31.444 18.6774 31.2354C18.541 31.0189 18.4729 30.7141 18.4729 30.3212L18.6293 30.4415C18.5491 30.7302 18.4047 30.9828 18.1962 31.1993C17.9957 31.4159 17.731 31.5843 17.4022 31.7046C17.0814 31.8249 16.7085 31.8851 16.2834 31.8851ZM16.7165 30.646C17.0132 30.646 17.2739 30.5898 17.4984 30.4775C17.723 30.3572 17.8994 30.1848 18.0278 29.9603C18.1561 29.7357 18.2202 29.471 18.2202 29.1663V28.8535L16.7526 29.1663C16.4639 29.2224 16.2433 29.3187 16.0909 29.455C15.9466 29.5833 15.8744 29.7517 15.8744 29.9603C15.8744 30.1768 15.9466 30.3452 16.0909 30.4655C16.2353 30.5858 16.4438 30.646 16.7165 30.646ZM23.8317 31.7407C23.166 31.7407 22.6768 31.5883 22.364 31.2836C22.0512 30.9708 21.8948 30.4775 21.8948 29.8039V23.7768H23.6993V29.5873C23.6993 29.9001 23.7635 30.1126 23.8918 30.2249C24.0282 30.3372 24.2287 30.3933 24.4933 30.3933H25.3956V31.7407H23.8317ZM20.8603 26.64V25.2926H25.3956V26.64H20.8603ZM26.4594 31.7407V25.2926H28.2639V31.7407H26.4594ZM26.4233 24.4986V23.055H28.2879V24.4986H26.4233ZM32.6486 31.8851C31.991 31.8851 31.4175 31.7487 30.9283 31.476C30.4391 31.1953 30.0582 30.8024 29.7855 30.2971C29.5128 29.7918 29.3765 29.1984 29.3765 28.5167C29.3765 27.835 29.5128 27.2455 29.7855 26.7482C30.0582 26.243 30.4391 25.85 30.9283 25.5693C31.4175 25.2886 31.991 25.1483 32.6486 25.1483C33.3063 25.1483 33.8797 25.2886 34.3689 25.5693C34.8581 25.85 35.2391 26.243 35.5118 26.7482C35.7844 27.2455 35.9208 27.835 35.9208 28.5167C35.9208 29.1984 35.7844 29.7918 35.5118 30.2971C35.2391 30.8024 34.8581 31.1953 34.3689 31.476C33.8797 31.7487 33.3063 31.8851 32.6486 31.8851ZM32.6486 30.5016C33.0977 30.5016 33.4466 30.3292 33.6952 29.9843C33.9438 29.6314 34.0682 29.1422 34.0682 28.5167C34.0682 27.8911 33.9438 27.4059 33.6952 27.061C33.4466 26.7081 33.0977 26.5317 32.6486 26.5317C32.1995 26.5317 31.8506 26.7081 31.602 27.061C31.3534 27.4059 31.2291 27.8911 31.2291 28.5167C31.2291 29.1422 31.3534 29.6314 31.602 29.9843C31.8506 30.3292 32.1995 30.5016 32.6486 30.5016ZM37.0444 31.7407V25.2926H38.6684L38.7406 27.1813L38.512 27.1212C38.5762 26.64 38.7045 26.255 38.897 25.9663C39.0975 25.6776 39.3461 25.4691 39.6428 25.3407C39.9396 25.2124 40.2644 25.1483 40.6173 25.1483C41.0824 25.1483 41.4754 25.2485 41.7962 25.449C42.125 25.6495 42.3737 25.9342 42.5421 26.3031C42.7185 26.664 42.8067 27.0931 42.8067 27.5903V31.7407H41.0022V28.1918C41.0022 27.847 40.9742 27.5543 40.918 27.3137C40.8619 27.0731 40.7616 26.8926 40.6173 26.7723C40.4729 26.644 40.2724 26.5798 40.0158 26.5798C39.6388 26.5798 39.3501 26.7202 39.1496 27.0009C38.9491 27.2736 38.8489 27.6705 38.8489 28.1918V31.7407H37.0444Z" fill="black"/>
</svg>
