<svg width="30" height="28" viewBox="0 0 30 28" fill="none" xmlns="http://www.w3.org/2000/svg">
<path d="M2.48108 0.75006H12.2756V5.51026H11.136V4.91884H3.62064V5.58239H2.48108V0.75006ZM2.75515 9.92427V8.87126L3.38263 7.38549H0.245223V6.33248H14.5403V7.38549H4.57268L3.95241 8.88568H12.5641C12.4487 10.0012 12.3381 10.9148 12.2323 11.6264C12.0015 13.1939 11.0975 13.9777 9.52041 13.9777C8.4145 13.9777 7.23166 13.9584 5.97189 13.92C5.91419 13.593 5.83245 13.1747 5.72667 12.665C7.10184 12.7804 8.2991 12.8381 9.31846 12.8381C10.357 12.8381 10.9437 12.3717 11.0783 11.4389C11.1456 11.0542 11.2129 10.5493 11.2802 9.92427H2.75515ZM11.136 1.78865H3.62064V3.88025H11.136V1.78865ZM19.3149 13.1554C21.1228 12.5063 22.6879 11.7538 24.0102 10.8979C23.6688 10.0276 23.3995 8.99627 23.2024 7.80382L20.1227 8.23656L19.9496 7.19797L23.0581 6.76523C22.9764 6.09207 22.9163 5.37323 22.8778 4.60871L20.2669 4.90442L20.0938 3.86583L22.8201 3.56291C22.7672 2.56278 22.7192 1.4136 22.6759 0.115366H23.8587C23.8828 1.3559 23.914 2.46181 23.9525 3.43308L28.7776 2.88494L28.9074 3.9091L23.9958 4.47889C24.0294 5.23859 24.0847 5.95022 24.1616 6.61376L29.1382 5.91416L29.268 6.93832L24.2987 7.64514C24.4622 8.64046 24.6833 9.50595 24.9622 10.2416C25.9816 9.47229 26.8302 8.63084 27.5082 7.71727L28.4458 8.42408C27.5803 9.46748 26.5754 10.4123 25.431 11.2586C25.8013 11.9221 26.2436 12.4294 26.7581 12.7804C27.3928 13.1554 27.8015 12.9631 27.9842 12.2034C28.1092 11.5879 28.2102 10.9052 28.2871 10.1551C28.7295 10.3474 29.0997 10.4868 29.3979 10.5734C29.2344 11.612 29.0709 12.3957 28.9074 12.9246C28.6285 13.742 28.1525 14.1508 27.4794 14.1508C26.7773 14.1508 26.1282 13.8623 25.532 13.2853C25.1425 12.915 24.7939 12.4558 24.4862 11.9077C23.1639 12.7636 21.6806 13.5064 20.0361 14.1363C19.863 13.8671 19.6226 13.5401 19.3149 13.1554ZM16.8482 8.79913C17.7041 8.67412 18.7138 8.51063 19.8775 8.30869C19.8198 8.6645 19.7765 9.03474 19.7476 9.4194C18.1417 9.66943 16.7328 9.89542 15.5211 10.0974L15.2904 9.0155C15.9587 8.29907 16.692 7.27731 17.4901 5.95022C16.7112 5.9935 15.9779 6.04879 15.2904 6.11611L15.0163 5.13522C15.9106 3.91391 16.829 2.20216 17.7714 -3.30051e-05L18.8677 0.432713C17.8772 2.38488 17.0261 3.92353 16.3145 5.04867C16.8867 5.02943 17.4661 5.0078 18.0527 4.98376C18.3845 4.39234 18.7283 3.75043 19.0841 3.05804L20.1515 3.59176C18.9783 5.62085 17.8772 7.35664 16.8482 8.79913ZM15.0163 12.1313C16.7088 11.7658 18.4205 11.3668 20.1515 10.934C20.1227 11.3187 20.1083 11.6841 20.1083 12.0303C18.5023 12.4053 16.9107 12.8044 15.3336 13.2276L15.0163 12.1313ZM25.0704 0.879883L25.6907 0.15864C26.3734 0.591386 27.1043 1.11068 27.8833 1.71653L27.1909 2.55317C26.3927 1.87039 25.6859 1.31263 25.0704 0.879883Z" fill="black"/>
<path d="M0.830462 24.0155V17.6065H1.60676V23.6544L1.21861 23.2573H4.81126V24.0155H0.830462ZM5.50879 24.0155V19.2313H6.26704V24.0155H5.50879ZM5.49074 18.4821V17.5975H6.28509V18.4821H5.49074ZM7.80074 24.0155V19.2313H8.4958L8.52288 20.4499L8.43261 20.3687C8.49279 20.0859 8.5981 19.8542 8.74855 19.6736C8.89899 19.4871 9.07953 19.3487 9.29015 19.2584C9.5068 19.1681 9.73848 19.123 9.98521 19.123C10.3523 19.123 10.6532 19.2042 10.8879 19.3667C11.1286 19.5292 11.3061 19.7489 11.4205 20.0257C11.5408 20.2965 11.601 20.6004 11.601 20.9374V24.0155H10.8428V21.154C10.8428 20.8591 10.8066 20.6124 10.7344 20.4138C10.6682 20.2092 10.5599 20.0558 10.4095 19.9535C10.259 19.8451 10.0634 19.791 9.82273 19.791C9.45564 19.791 9.15174 19.9083 8.91103 20.143C8.67633 20.3717 8.55899 20.7087 8.55899 21.154V24.0155H7.80074ZM14.8085 24.1238C14.3572 24.1238 13.966 24.0215 13.6351 23.8169C13.3101 23.6123 13.0573 23.3235 12.8768 22.9503C12.7023 22.5712 12.615 22.1289 12.615 21.6234C12.615 21.1179 12.7023 20.6786 12.8768 20.3055C13.0573 19.9324 13.3071 19.6435 13.626 19.4389C13.951 19.2283 14.3331 19.123 14.7724 19.123C15.1877 19.123 15.5547 19.2223 15.8737 19.4209C16.1926 19.6135 16.4394 19.8963 16.6139 20.2694C16.7944 20.6425 16.8847 21.0969 16.8847 21.6324V21.8581H13.4094C13.4395 22.3696 13.5749 22.7548 13.8156 23.0135C14.0623 23.2723 14.3933 23.4017 14.8085 23.4017C15.1215 23.4017 15.3772 23.3295 15.5758 23.185C15.7804 23.0346 15.9218 22.839 16.0001 22.5983L16.8125 22.6615C16.6861 23.0888 16.4454 23.4408 16.0903 23.7176C15.7413 23.9884 15.314 24.1238 14.8085 24.1238ZM13.4094 21.1901H16.0542C16.0181 20.7268 15.8827 20.3867 15.648 20.1701C15.4193 19.9535 15.1275 19.8451 14.7724 19.8451C14.4053 19.8451 14.1014 19.9595 13.8607 20.1882C13.626 20.4108 13.4756 20.7448 13.4094 21.1901Z" fill="black"/>
<path d="M22.5223 24.1599C22.0048 24.1599 21.5565 24.0245 21.1773 23.7537C20.7982 23.4829 20.5033 23.0978 20.2927 22.5983C20.0881 22.0988 19.9858 21.5061 19.9858 20.82C19.9858 20.134 20.0881 19.5412 20.2927 19.0418C20.5033 18.5363 20.7982 18.1481 21.1773 17.8773C21.5565 17.6005 22.0048 17.4621 22.5223 17.4621C23.0459 17.4621 23.4972 17.6005 23.8763 17.8773C24.2555 18.1481 24.5473 18.5333 24.7519 19.0327C24.9626 19.5322 25.0679 20.128 25.0679 20.82C25.0679 21.5061 24.9626 22.0988 24.7519 22.5983C24.5473 23.0978 24.2555 23.4829 23.8763 23.7537C23.4972 24.0245 23.0459 24.1599 22.5223 24.1599ZM22.5223 23.4017C23.076 23.4017 23.5032 23.179 23.8041 22.7337C24.105 22.2824 24.2555 21.6445 24.2555 20.82C24.2555 20.2664 24.1862 19.797 24.0478 19.4119C23.9154 19.0207 23.7199 18.7258 23.4611 18.5272C23.2084 18.3226 22.8954 18.2203 22.5223 18.2203C22.1552 18.2203 21.8423 18.3226 21.5835 18.5272C21.3308 18.7258 21.1352 19.0207 20.9968 19.4119C20.8644 19.797 20.7982 20.2664 20.7982 20.82C20.7982 21.6445 20.9487 22.2824 21.2495 22.7337C21.5504 23.179 21.9747 23.4017 22.5223 23.4017Z" fill="#808080"/>
</svg>
