<svg width="401" height="400" viewBox="0 0 401 400" fill="none" xmlns="http://www.w3.org/2000/svg">
<path d="M360.092 0C382.183 0.000131944 400.092 17.9087 400.092 40V360C400.092 382.091 382.183 400 360.092 400H40.0918C18.0004 400 0.0917969 382.091 0.0917969 360V40C0.0917969 17.9086 18.0004 0 40.0918 0H360.092ZM171.429 257.143V371.429H228.571V257.143H171.429ZM180.952 28.5713C155.555 28.5713 109.524 35.7148 85.7148 66.667V238.096L123.81 314.286H161.905V247.619H238.096V314.286H276.19L314.286 238.096V66.667C290.477 35.7147 244.445 28.5713 219.048 28.5713H180.952ZM138.096 171.429L138.341 171.435C140.857 171.562 142.857 173.643 142.857 176.19V185.715C142.857 188.344 140.725 190.476 138.096 190.477H109.523C106.894 190.476 104.762 188.344 104.762 185.715V176.19C104.762 173.561 106.894 171.429 109.523 171.429H138.096ZM290.477 171.429L290.722 171.435C293.238 171.562 295.238 173.643 295.238 176.19V185.715C295.238 188.344 293.106 190.476 290.477 190.477H261.905C259.275 190.477 257.143 188.345 257.143 185.715V176.19C257.143 173.561 259.275 171.429 261.905 171.429H290.477ZM285.714 76.1904C290.974 76.1904 295.238 80.455 295.238 85.7148V142.857C295.238 148.117 290.974 152.381 285.714 152.381H114.286L113.796 152.369C108.764 152.114 104.762 147.953 104.762 142.857V85.7148C104.762 80.455 109.026 76.1904 114.286 76.1904H285.714Z" fill="black"/>
</svg>
