<svg width="40" height="40" viewBox="0 0 40 40" fill="none" xmlns="http://www.w3.org/2000/svg">
<path d="M11.4286 7.61905H28.5714C29.0974 7.61905 29.5238 8.04544 29.5238 8.57143V14.2857C29.5238 14.8117 29.0974 15.2381 28.5714 15.2381H11.4286C10.9026 15.2381 10.4762 14.8117 10.4762 14.2857V8.57143C10.4762 8.04544 10.9026 7.61905 11.4286 7.61905Z" fill="black"/>
<path d="M10.9524 17.1429H13.8095C14.0725 17.1429 14.2857 17.3561 14.2857 17.619V18.5714C14.2857 18.8344 14.0725 19.0476 13.8095 19.0476H10.9524C10.6894 19.0476 10.4762 18.8344 10.4762 18.5714V17.619C10.4762 17.3561 10.6894 17.1429 10.9524 17.1429Z" fill="black"/>
<path d="M26.1905 17.1429H29.0476C29.3106 17.1429 29.5238 17.3561 29.5238 17.619V18.5714C29.5238 18.8344 29.3106 19.0476 29.0476 19.0476H26.1905C25.9275 19.0476 25.7143 18.8344 25.7143 18.5714V17.619C25.7143 17.3561 25.9275 17.1429 26.1905 17.1429Z" fill="black"/>
<path fill-rule="evenodd" clip-rule="evenodd" d="M0 5.71428C0 2.55837 2.55837 0 5.71429 0H34.2857C37.4416 0 40 2.55837 40 5.71429V34.2857C40 37.4416 37.4416 40 34.2857 40H5.71428C2.55837 40 0 37.4416 0 34.2857V5.71428ZM8.57143 23.8095L12.381 31.4286H16.1905V24.7619H23.8095V31.4286H27.619L31.4286 23.8095V6.66667C29.0476 3.57143 24.4444 2.85714 21.9048 2.85714H18.0952C15.5556 2.85714 10.9524 3.57143 8.57143 6.66667V23.8095ZM22.8571 25.7143H17.1429V37.1429H22.8571V25.7143Z" fill="black"/>
<path fill-rule="evenodd" clip-rule="evenodd" d="M12.381 31.4286H16.1905V24.7619H23.8095V31.4286H27.619L31.4286 23.8095V6.66667C29.0476 3.57143 24.4444 2.85714 21.9048 2.85714H18.0952C15.5556 2.85714 10.9524 3.57143 8.57143 6.66667V23.8095L12.381 31.4286ZM28.5714 7.61905H11.4286C10.9026 7.61905 10.4762 8.04544 10.4762 8.57143V14.2857C10.4762 14.8117 10.9026 15.2381 11.4286 15.2381H28.5714C29.0974 15.2381 29.5238 14.8117 29.5238 14.2857V8.57143C29.5238 8.04544 29.0974 7.61905 28.5714 7.61905ZM13.8095 17.1429H10.9524C10.6894 17.1429 10.4762 17.3561 10.4762 17.619V18.5714C10.4762 18.8344 10.6894 19.0476 10.9524 19.0476H13.8095C14.0725 19.0476 14.2857 18.8344 14.2857 18.5714V17.619C14.2857 17.3561 14.0725 17.1429 13.8095 17.1429ZM29.0476 17.1429H26.1905C25.9275 17.1429 25.7143 17.3561 25.7143 17.619V18.5714C25.7143 18.8344 25.9275 19.0476 26.1905 19.0476H29.0476C29.3106 19.0476 29.5238 18.8344 29.5238 18.5714V17.619C29.5238 17.3561 29.3106 17.1429 29.0476 17.1429Z" fill="white"/>
<path d="M17.1429 25.7143H22.8571V37.1429H17.1429V25.7143Z" fill="white"/>
</svg>
