<svg width="440" height="440" viewBox="0 0 440 440" fill="none" xmlns="http://www.w3.org/2000/svg">
<rect width="440" height="440" rx="62.8571" fill="black"/>
<path d="M279.505 312.707C291.085 312.707 301.064 302.19 301.064 291.147V134.713C301.064 123.67 293.323 117.807 281.743 117.807H159.096C147.516 117.807 138.936 123.67 138.936 134.713V291.147C138.936 302.19 148.915 312.707 160.495 312.707V335.129L118.238 392.909H144.11L183.78 335.129H256.22L295.89 392.909H321.761L279.505 335.129V312.707ZM197.578 129.881H242.422C247.548 129.881 250.183 134.18 250.183 139.069C250.183 143.957 247.549 148.853 242.422 148.853H197.578C192.452 148.853 188.954 143.958 188.954 139.069C188.954 134.18 192.452 129.881 197.578 129.881ZM160.495 159.202H279.505V222.156H160.495V159.202ZM176.018 293.734C166.897 293.734 159.502 285.616 159.502 276.918C159.502 268.219 166.897 260.101 176.018 260.101C185.14 260.101 192.534 268.219 192.534 276.918C192.534 285.616 185.139 293.734 176.018 293.734ZM262.16 293.734C253.039 293.734 245.645 285.616 245.645 276.918C245.645 268.219 253.039 260.101 262.16 260.101C271.282 260.101 278.676 268.219 278.676 276.918C278.676 285.616 271.281 293.734 262.16 293.734Z" fill="white"/>
<path d="M376.092 128.156C368.771 115.638 346.764 35.8806 221.38 35.8806C95.9971 35.8806 68.8963 115.249 63.908 128.156C59.5739 139.37 55.2842 159.518 55.2842 175.587V404.12L94.0916 359.275V175.587C94.0916 162.236 97.6228 148.505 104.009 136.78C109.736 126.265 133.653 79.8623 221.084 79.8623C308.515 79.8623 331.491 126.559 335.991 136.78C341.37 149 345.908 162.236 345.908 175.587V356.113L384.716 404.12V175.587C384.716 159.518 381.346 137.139 376.092 128.156Z" fill="white"/>
</svg>
